<svg width="88" height="67" viewBox="0 0 88 67" fill="none" xmlns="http://www.w3.org/2000/svg">
<path d="M18.4156 55.8117H1.54181V46.4837C1.54672 43.867 2.58256 41.3534 4.43342 39.5025C6.27937 37.6467 8.77835 36.6108 11.3853 36.6108H22.5346C24.464 36.6108 26.3394 37.1803 27.9301 38.2261" stroke="#0448A3" stroke-width="1.47283" stroke-miterlimit="10"/>
<path d="M16.3437 32.3883C14.5616 32.3883 12.8139 31.8629 11.3312 30.8712C9.84855 29.8795 8.68991 28.4705 8.0075 26.8259C7.32509 25.1763 7.14353 23.3647 7.4921 21.617C7.84067 19.8692 8.69972 18.2589 9.95653 16.9972C11.2183 15.7354 12.8237 14.8763 14.5764 14.5277C16.3242 14.1791 18.1406 14.3559 19.7902 15.0383C21.4397 15.7207 22.8487 16.8744 23.8355 18.362C24.8272 19.8446 25.3575 21.5875 25.3575 23.3745C25.3575 24.5577 25.1268 25.7311 24.6702 26.8259C24.2186 27.9207 23.5557 28.9124 22.7162 29.7519C21.8767 30.5914 20.885 31.2542 19.7902 31.7058C18.7003 32.1575 17.5269 32.3883 16.3437 32.3883Z" stroke="#0448A3" stroke-width="1.47283" stroke-miterlimit="10"/>
<path d="M41.3818 32.3935C39.1284 32.3984 36.9241 31.7209 35.0487 30.4444C33.1733 29.168 31.7103 27.3515 30.8462 25.2257C29.9821 23.0999 29.7515 20.7581 30.1884 18.4997C30.6254 16.2414 31.7054 14.1647 33.3009 12.5348C34.8916 10.9048 36.9192 9.7953 39.1334 9.34364C41.3427 8.89197 43.6353 9.12271 45.7169 10.0015C47.7985 10.8803 49.5806 12.3728 50.8325 14.2874C52.0844 16.2021 52.7522 18.4556 52.7522 20.7581C52.7522 23.8412 51.5543 26.7967 49.4236 28.9814C47.288 31.1563 44.3962 32.3886 41.3818 32.3935Z" stroke="#0448A3" stroke-width="1.47283" stroke-miterlimit="10"/>
<path d="M59.9642 41.4857C58.6043 40.165 57.0136 39.1242 55.2806 38.3976C53.4199 37.6121 51.3923 37.1997 49.3156 37.1948H33.4728C31.5532 37.1948 29.6729 37.5483 27.9301 38.2307C26.035 38.9524 24.2922 40.057 22.8292 41.4808C20.0063 44.2251 18.4204 47.9514 18.4204 51.8397V65.704H64.3827V51.8397C64.3778 47.9514 62.7871 44.235 59.9642 41.4857Z" stroke="#0448A3" stroke-width="1.47283" stroke-miterlimit="10"/>
<path d="M73.0332 28.7115C80.7312 28.7115 86.9661 22.4716 86.9661 14.7785C86.9661 7.08536 80.7263 0.845459 73.0332 0.845459C65.3401 0.845459 59.1001 7.08536 59.1001 14.7785C59.1001 22.4765 65.3352 28.7115 73.0332 28.7115Z" stroke="#0448A3" stroke-width="1.47283" stroke-miterlimit="10"/>
<path d="M73.0332 8.91162V20.6501" stroke="#0448A3" stroke-width="1.47283" stroke-miterlimit="10" stroke-linecap="round"/>
<path d="M78.9048 14.7781H67.1614" stroke="#0448A3" stroke-width="1.47283" stroke-miterlimit="10" stroke-linecap="round"/>
</svg>
