<svg width="63" height="47" viewBox="0 0 63 47" fill="none" xmlns="http://www.w3.org/2000/svg">
<path d="M51.6572 20.5287C57.029 20.5287 61.3837 16.174 61.3837 10.8022C61.3837 5.43035 57.029 1.07564 51.6572 1.07564C46.2854 1.07564 41.9306 5.43034 41.9306 10.8022C41.9306 16.174 46.2854 20.5287 51.6572 20.5287Z" fill="#0448A3" stroke="#2F80ED" stroke-width="1.84872"/>
<path d="M51.4444 15.7399C51.2167 15.7399 50.9982 15.6567 50.8372 15.5085C50.6761 15.3603 50.5857 15.1594 50.5857 14.9498V6.65431C50.5857 6.44477 50.6761 6.24383 50.8372 6.09567C50.9982 5.94751 51.2167 5.86426 51.4444 5.86426C51.6722 5.86426 51.8906 5.94751 52.0516 6.09567C52.2127 6.24383 52.3032 6.44477 52.3032 6.65431V14.9498C52.3032 15.1594 52.2127 15.3603 52.0516 15.5085C51.8906 15.6567 51.6722 15.7399 51.4444 15.7399Z" fill="#FEFEFE"/>
<path d="M55.8059 11.4465H47.5104C47.3009 11.4465 47.0999 11.3561 46.9517 11.195C46.8035 11.034 46.7203 10.8155 46.7203 10.5878C46.7203 10.36 46.8035 10.1416 46.9517 9.98054C47.0999 9.81949 47.3009 9.729 47.5104 9.729H55.8059C56.0155 9.729 56.2163 9.81949 56.3645 9.98054C56.5127 10.1416 56.596 10.36 56.596 10.5878C56.596 10.8155 56.5127 11.034 56.3645 11.195C56.2163 11.3561 56.0155 11.4465 55.8059 11.4465Z" fill="#FEFEFE"/>
<path d="M7.10072 26.5265H7.10119H15.1403C16.7913 26.5265 18.3701 27.1642 19.5312 28.292C20.6915 29.419 21.3399 30.9425 21.3425 32.5267V38.1397H0.895192V32.526C0.897996 30.9415 1.54689 29.4178 2.7077 28.2908C3.86951 27.1629 5.44914 26.5257 7.10072 26.5265Z" fill="white" stroke="#0448A3" stroke-width="1.79038"/>
<path d="M10.7026 21.8927H10.702C9.59392 21.8934 8.51005 21.5633 7.58749 20.9437C6.66487 20.3241 5.94476 19.4424 5.5191 18.4096C5.09342 17.3768 4.98162 16.2398 5.19808 15.1427C5.41454 14.0457 5.94933 13.0386 6.73396 12.2486C7.51853 11.4587 8.51762 10.9213 9.60454 10.7035C10.6914 10.4857 11.8181 10.5971 12.8424 11.0238C13.8668 11.4506 14.7432 12.1739 15.3603 13.103C15.9774 14.0321 16.3071 15.1252 16.3071 16.2438V16.2443C16.3075 16.9867 16.1626 17.7218 15.8806 18.4075C15.5987 19.0931 15.1855 19.7158 14.6647 20.2401C14.144 20.7644 13.526 21.18 12.8462 21.4635C12.1665 21.7469 11.4381 21.8927 10.7026 21.8927Z" fill="white" stroke="#0448A3" stroke-width="1.79038"/>
<path d="M28.7587 23.1943C27.0568 23.198 25.3919 22.7008 23.975 21.7658C22.558 20.8308 21.4527 19.5 20.7988 17.9417C20.1449 16.3835 19.9719 14.6679 20.3017 13.0121C20.6314 11.3563 21.4492 9.83479 22.6513 8.64006C23.8535 7.44533 25.3861 6.63113 27.0551 6.30051C28.7241 5.96989 30.4545 6.13772 32.0273 6.78275C33.6001 7.42778 34.9446 8.52102 35.8905 9.92409C36.8365 11.3272 37.3414 12.977 37.3414 14.6648C37.3439 15.784 37.1237 16.8927 36.6935 17.9275C36.2633 18.9622 35.6315 19.9027 34.8342 20.6949C34.037 21.4872 33.09 22.1158 32.0475 22.5447C31.005 22.9735 29.8874 23.1943 28.7587 23.1943Z" fill="#0448A3"/>
<path d="M44.4743 36.2682V45.5333H13.0059V36.2682C13.0059 33.6625 14.0639 31.1635 15.9473 29.321C17.8307 27.4785 20.3851 26.4434 23.0486 26.4434H34.4278C37.0916 26.4434 39.6464 27.4784 41.5304 29.3208C43.4144 31.1632 44.4733 33.6622 44.4743 36.2682Z" fill="#0448A3"/>
<path d="M45.3167 46.0587H45.4361V45.9394V36.2587V36.2586C45.4319 33.5142 44.2718 30.8849 42.2126 28.947C40.1537 27.0093 37.3639 25.9207 34.4556 25.9178H34.4555H23.0273C20.1183 25.9178 17.3272 27.0056 15.2682 28.944C13.2089 30.8827 12.0506 33.5137 12.0506 36.2587V45.9394V46.0587H12.1699H45.3167ZM43.6546 44.3675H23.6136H23.6136L13.8321 44.364V36.2588C13.8321 36.2588 13.8321 36.2588 13.8321 36.2587C13.8331 33.9674 14.8003 31.7685 16.5238 30.146C18.2476 28.5232 20.5866 27.6099 23.0273 27.6089C23.0273 27.6089 23.0273 27.6089 23.0273 27.6089H34.4553C36.8958 27.6118 39.2341 28.5255 40.9581 30.1479C42.6818 31.77 43.6506 33.9678 43.6546 36.259V44.3675Z" fill="#2F80ED" stroke="#2F80ED" stroke-width="0.238718"/>
</svg>
