<svg width="1261" height="520" viewBox="0 0 1261 520" fill="none" xmlns="http://www.w3.org/2000/svg">
<rect width="1261" height="520" fill="white"/>
<ellipse cx="232.428" cy="384.749" rx="60.0233" ry="47.4811" fill="white"/>
<ellipse cx="231.92" cy="137.031" rx="34.3431" ry="42.9965" fill="white"/>
<path d="M275.547 218.154H189.724V124.569C189.724 113.525 194.245 102.933 202.292 95.1232C210.34 87.3137 221.254 82.9263 232.635 82.9263C244.016 82.9263 254.931 87.3137 262.978 95.1232C271.025 102.933 275.547 113.525 275.547 124.569V218.154ZM203.645 204.645H261.626V124.569C261.626 117.107 258.571 109.952 253.135 104.676C247.698 99.3997 240.324 96.4356 232.635 96.4356C224.946 96.4356 217.573 99.3997 212.136 104.676C206.699 109.952 203.645 117.107 203.645 124.569V204.645Z" fill="#0448A3"/>
<path d="M232.635 437.074C214.383 437.056 196.884 430.012 183.978 417.488C171.073 404.964 163.814 387.982 163.796 370.27V354.397C163.805 340.465 169.507 327.105 179.652 317.247C189.797 307.39 203.557 301.839 217.913 301.812H247.356C261.71 301.83 275.469 307.373 285.615 317.226C295.761 327.078 301.464 340.434 301.474 354.363V370.236C301.464 387.954 294.21 404.944 281.303 417.476C268.396 430.007 250.892 437.056 232.635 437.074ZM217.913 315.49C207.252 315.508 197.033 319.628 189.498 326.947C181.963 334.266 177.726 344.186 177.717 354.532V370.405C177.717 384.54 183.503 398.095 193.802 408.09C204.101 418.085 218.069 423.7 232.635 423.7C247.2 423.7 261.169 418.085 271.468 408.09C281.767 398.095 287.553 384.54 287.553 370.405V354.532C287.571 349.395 286.545 344.304 284.534 339.552C282.523 334.8 279.566 330.48 275.833 326.838C272.099 323.196 267.662 320.304 262.776 318.328C257.89 316.352 252.65 315.33 247.356 315.321L217.913 315.49Z" fill="#0448A3"/>
<path d="M372.885 360.342L331.54 311.539V239.4C331.54 213.97 321.131 189.582 302.601 171.601C284.072 153.619 258.941 143.517 232.736 143.517C219.761 143.517 206.913 145.998 194.926 150.816C182.938 155.635 172.046 162.697 162.872 171.601C153.697 180.504 146.419 191.074 141.454 202.707C136.488 214.34 133.932 226.808 133.932 239.4V311.539L92.4832 360.342C91.0985 361.979 90.2213 363.964 89.9542 366.066C89.6872 368.169 90.0411 370.301 90.9747 372.216C91.9082 374.13 93.3833 375.748 95.2277 376.881C97.072 378.013 99.2098 378.614 101.392 378.613H364.115C366.286 378.589 368.405 377.969 370.229 376.827C372.053 375.684 373.507 374.065 374.424 372.155C375.341 370.245 375.682 368.123 375.41 366.033C375.138 363.943 374.263 361.97 372.885 360.342Z" fill="#0448A3"/>
<path d="M364.013 385.368H101.29C97.7903 385.365 94.3631 384.398 91.4071 382.58C88.4512 380.761 86.0881 378.165 84.5932 375.094C83.0984 372.022 82.5328 368.602 82.9627 365.231C83.3926 361.86 84.8002 358.677 87.0216 356.052L126.87 309.141V239.4C126.87 212.179 138.013 186.072 157.848 166.824C177.683 147.576 204.584 136.763 232.634 136.763C260.685 136.763 287.586 147.576 307.421 166.824C327.256 186.072 338.398 212.179 338.398 239.4V309.141L378.247 356.052C380.481 358.671 381.901 361.853 382.34 365.225C382.779 368.598 382.219 372.022 380.725 375.097C379.232 378.173 376.867 380.772 373.908 382.59C370.948 384.409 367.516 385.372 364.013 385.368ZM232.634 150.272C208.284 150.299 184.94 159.698 167.722 176.406C150.504 193.115 140.819 215.77 140.791 239.4V313.971L97.7754 364.631C97.2163 365.272 96.8584 366.055 96.7439 366.887C96.6294 367.719 96.7633 368.566 97.1296 369.326C97.4959 370.087 98.0794 370.73 98.8107 371.179C99.542 371.628 100.39 371.863 101.256 371.858H363.978C364.837 371.85 365.677 371.606 366.399 371.154C367.122 370.703 367.698 370.063 368.062 369.307C368.426 368.552 368.562 367.712 368.455 366.885C368.349 366.057 368.003 365.276 367.458 364.631L324.408 313.971V239.4C324.38 215.781 314.705 193.137 297.502 176.43C280.299 159.723 256.972 150.317 232.634 150.272Z" fill="#0448A3"/>
<path d="M474.282 264.759L471.158 276.474H498.299L495.37 264.759C493.548 258.38 491.79 251.611 490.098 244.452C488.406 237.292 486.714 230.393 485.021 223.755H484.24C482.678 230.524 481.051 237.488 479.359 244.647C477.797 251.676 476.105 258.38 474.282 264.759ZM428.202 329.193L468.034 201.886H502.595L542.427 329.193H511.967L504.157 298.928H465.301L457.49 329.193H428.202ZM580.354 331.536C575.408 331.536 571.242 330.755 567.858 329.193C564.473 327.631 561.74 325.483 559.657 322.75C557.704 319.886 556.272 316.502 555.361 312.596C554.45 308.561 553.994 304.07 553.994 299.124V192.318H582.697V300.295C582.697 303.289 583.218 305.372 584.259 306.543C585.431 307.715 586.602 308.301 587.774 308.301C588.425 308.301 588.945 308.301 589.336 308.301C589.857 308.301 590.507 308.171 591.288 307.91L594.803 329.193C593.241 329.844 591.223 330.365 588.75 330.755C586.407 331.276 583.608 331.536 580.354 331.536ZM609.864 329.193V232.346H638.566V329.193H609.864ZM624.117 218.092C619.301 218.092 615.331 216.725 612.207 213.992C609.083 211.128 607.521 207.483 607.521 203.057C607.521 198.632 609.083 195.052 612.207 192.318C615.331 189.585 619.301 188.218 624.117 188.218C629.064 188.218 633.034 189.585 636.028 192.318C639.152 195.052 640.714 198.632 640.714 203.057C640.714 207.483 639.152 211.128 636.028 213.992C633.034 216.725 629.064 218.092 624.117 218.092ZM663.826 329.193V232.346H687.257L689.21 249.333H689.991C693.505 242.695 697.736 237.813 702.682 234.689C707.629 231.565 712.575 230.003 717.522 230.003C720.255 230.003 722.468 230.198 724.161 230.589C725.983 230.849 727.61 231.305 729.042 231.955L724.356 256.753C722.533 256.232 720.841 255.842 719.279 255.581C717.717 255.321 715.895 255.191 713.812 255.191C710.167 255.191 706.327 256.493 702.292 259.096C698.387 261.699 695.132 266.321 692.529 272.959V329.193H663.826ZM778.918 331.536C772.93 331.536 767.788 330.625 763.493 328.803C759.327 326.98 755.878 324.442 753.144 321.188C750.541 317.933 748.588 314.028 747.286 309.472C746.115 304.786 745.529 299.644 745.529 294.047V254.8H732.252V233.517L747.091 232.346L750.41 206.572H774.232V232.346H797.467V254.8H774.232V293.657C774.232 299.124 775.338 303.094 777.551 305.567C779.894 307.91 782.953 309.082 786.728 309.082C788.29 309.082 789.852 308.887 791.414 308.496C793.107 308.106 794.604 307.65 795.905 307.129L800.396 328.022C797.793 328.803 794.734 329.584 791.219 330.365C787.704 331.146 783.604 331.536 778.918 331.536ZM816.371 329.193V232.346H845.073V329.193H816.371ZM830.624 218.092C825.808 218.092 821.838 216.725 818.714 213.992C815.59 211.128 814.028 207.483 814.028 203.057C814.028 198.632 815.59 195.052 818.714 192.318C821.838 189.585 825.808 188.218 830.624 188.218C835.571 188.218 839.541 189.585 842.535 192.318C845.659 195.052 847.221 198.632 847.221 203.057C847.221 207.483 845.659 211.128 842.535 213.992C839.541 216.725 835.571 218.092 830.624 218.092ZM875.215 329.193V254.8H862.328V233.517L875.215 232.541V227.269C875.215 222.193 875.8 217.376 876.972 212.82C878.274 208.264 880.356 204.294 883.22 200.91C886.084 197.525 889.794 194.857 894.35 192.904C898.906 190.951 904.438 189.975 910.947 189.975C914.982 189.975 918.627 190.366 921.881 191.147C925.265 191.928 928.064 192.709 930.277 193.49L925.005 214.578C921.36 213.276 918.041 212.625 915.047 212.625C911.532 212.625 908.799 213.731 906.846 215.944C904.894 218.027 903.917 221.542 903.917 226.488V232.346H921.295V254.8H903.917V329.193H875.215ZM947.62 367.073C944.626 367.073 942.087 366.878 940.005 366.487C937.922 366.227 935.904 365.771 933.952 365.12L939.028 343.252C939.94 343.512 940.981 343.772 942.153 344.033C943.324 344.293 944.431 344.423 945.472 344.423C950.288 344.423 953.998 343.252 956.602 340.909C959.205 338.566 961.158 335.507 962.459 331.732L963.826 326.655L926.532 232.346H955.43L969.293 273.936C970.725 278.361 972.027 282.852 973.198 287.408C974.37 291.964 975.607 296.65 976.908 301.467H977.689C978.731 296.911 979.772 292.355 980.813 287.799C981.985 283.113 983.156 278.492 984.328 273.936L996.043 232.346H1023.57L989.99 330.17C987.647 336.288 985.174 341.625 982.571 346.181C980.097 350.867 977.169 354.707 973.784 357.701C970.53 360.825 966.755 363.168 962.459 364.73C958.294 366.292 953.347 367.073 947.62 367.073Z" fill="#0448A3"/>
<ellipse cx="830.607" cy="202.912" rx="17.1034" ry="15.3467" fill="#2D9CDB"/>
<ellipse cx="624.211" cy="203.215" rx="17.1034" ry="15.3467" fill="#2D9CDB"/>
</svg>
