<svg width="77" height="77" viewBox="0 0 77 77" fill="none" xmlns="http://www.w3.org/2000/svg">
<g filter="url(#filter0_d)">
<circle cx="38.9185" cy="38.6405" r="32.6405" fill="#0448A3"/>
</g>
<path d="M61.6108 25.7653C66.9827 25.7653 71.3373 21.4105 71.3373 16.0387C71.3373 10.6669 66.9826 6.31221 61.6108 6.31221C56.239 6.31221 51.8842 10.6669 51.8842 16.0387C51.8842 21.4105 56.239 25.7653 61.6108 25.7653Z" fill="#0448A3" stroke="#2F80ED" stroke-width="1.84872"/>
<path d="M61.3981 20.9764C61.1703 20.9764 60.9518 20.8932 60.7908 20.7451C60.6297 20.5969 60.5393 20.3959 60.5393 20.1864V11.8909C60.5393 11.6813 60.6297 11.4804 60.7908 11.3322C60.9518 11.1841 61.1703 11.1008 61.3981 11.1008C61.6258 11.1008 61.8442 11.1841 62.0052 11.3322C62.1663 11.4804 62.2568 11.6813 62.2568 11.8909V20.1864C62.2568 20.3959 62.1663 20.5969 62.0052 20.7451C61.8442 20.8932 61.6258 20.9764 61.3981 20.9764Z" fill="#FEFEFE"/>
<path d="M65.7595 16.6831H57.464C57.2545 16.6831 57.0535 16.5926 56.9053 16.4316C56.7572 16.2705 56.674 16.0521 56.674 15.8243C56.674 15.5966 56.7572 15.3782 56.9053 15.2171C57.0535 15.0561 57.2545 14.9656 57.464 14.9656H65.7595C65.9691 14.9656 66.17 15.0561 66.3181 15.2171C66.4663 15.3782 66.5496 15.5966 66.5496 15.8243C66.5496 16.0521 66.4663 16.2705 66.3181 16.4316C66.17 16.5926 65.9691 16.6831 65.7595 16.6831Z" fill="#FEFEFE"/>
<path d="M39.5345 42.5965C42.5291 42.5965 44.9284 40.1791 44.9284 37.1845L44.9464 26.3607C44.9464 23.3661 42.5291 20.9487 39.5345 20.9487C36.5399 20.9487 34.1225 23.3661 34.1225 26.3607V37.1845C34.1225 40.1791 36.5399 42.5965 39.5345 42.5965ZM49.0956 38.1731C49.0956 43.585 44.5135 47.3734 39.5345 47.3734C34.5555 47.3734 29.9734 43.585 29.9734 38.1731H26.9066C26.9066 44.3247 31.8134 49.4119 37.7305 50.2958V56.2129H41.3384V50.2958C47.2555 49.4299 52.1623 44.3427 52.1623 38.1731H49.0956Z" fill="white"/>
<path fill-rule="evenodd" clip-rule="evenodd" d="M44.7824 26.3605L44.7643 37.1844C44.7643 40.179 42.5298 42.5963 39.5352 42.5963C36.5406 42.5963 34.288 40.179 34.288 37.1844V26.3605C34.288 23.3659 36.5406 20.9486 39.5352 20.9486C42.5298 20.9486 44.7824 23.3659 44.7824 26.3605ZM46.4299 26.3605C46.4299 22.456 43.4397 19.301 39.5352 19.301C35.6307 19.301 32.6404 22.456 32.6404 26.3605V37.1844C32.6404 41.0889 35.6307 44.2439 39.5352 44.2439C43.4465 44.2439 46.4112 41.7415 46.4119 37.8447C46.4119 34.2794 46.4778 30.2116 46.4299 26.3605ZM47.6135 36.5254H53.8106V38.1729C53.8106 44.7339 48.9942 50.1286 42.9867 51.6454V57.8603H36.0836V51.6419C30.0795 50.1114 25.2598 44.7205 25.2598 38.1729V36.5254H31.6217V38.1729C31.6217 42.5457 35.3312 45.7257 39.5352 45.7257C43.7391 45.7257 47.6135 42.5457 47.6135 38.1729V36.5254ZM37.7312 50.2957V56.2127H41.3392V50.2957C46.7202 49.5082 51.2658 45.2295 52.0452 39.8205C52.1228 39.2818 52.163 38.7318 52.163 38.1729H49.261C49.261 43.5849 44.5142 47.3732 39.5352 47.3732C34.5562 47.3732 29.9741 43.5849 29.9741 38.1729H26.9073C26.9073 38.7317 26.9478 39.2817 27.0259 39.8205C27.8071 45.214 32.3516 49.492 37.7312 50.2957Z" fill="#2F80ED"/>
<defs>
<filter id="filter0_d" x="0.949019" y="0.670943" width="75.9391" height="75.9391" filterUnits="userSpaceOnUse" color-interpolation-filters="sRGB">
<feFlood flood-opacity="0" result="BackgroundImageFix"/>
<feColorMatrix in="SourceAlpha" type="matrix" values="0 0 0 0 0 0 0 0 0 0 0 0 0 0 0 0 0 0 127 0" result="hardAlpha"/>
<feOffset/>
<feGaussianBlur stdDeviation="2.66453"/>
<feColorMatrix type="matrix" values="0 0 0 0 0 0 0 0 0 0 0 0 0 0 0 0 0 0 0.25 0"/>
<feBlend mode="normal" in2="BackgroundImageFix" result="effect1_dropShadow"/>
<feBlend mode="normal" in="SourceGraphic" in2="effect1_dropShadow" result="shape"/>
</filter>
</defs>
</svg>
