<svg width="28" height="28" viewBox="0 0 28 28" fill="none" xmlns="http://www.w3.org/2000/svg">
<path d="M13.6091 0.473633C10.9252 0.473633 8.30155 1.2695 6.06997 2.76059C3.8384 4.25168 2.0991 6.37103 1.07202 8.85062C0.0449352 11.3302 -0.223787 14.0587 0.299815 16.691C0.823416 19.3233 2.11582 21.7413 4.01362 23.6391C5.91142 25.5369 8.32937 26.8293 10.9617 27.3529C13.594 27.8765 16.3225 27.6078 18.8021 26.5807C21.2817 25.5536 23.401 23.8143 24.8921 21.5827C26.3832 19.3511 27.1791 16.7275 27.1791 14.0436C27.1791 10.4446 25.7494 6.99306 23.2045 4.44819C20.6596 1.90333 17.2081 0.473633 13.6091 0.473633ZM16.9991 9.54363H15.4691C14.8691 9.54363 14.7391 9.79363 14.7391 10.4236V11.8036H16.9991L16.7591 14.0636H14.7591V21.9836H11.3691V14.0436H9.10907V11.7836H11.3691V9.17363C11.3691 7.17363 12.4191 6.17363 14.7891 6.17363H16.9991V9.54363Z" fill="#808080"/>
</svg>
