<svg width="45" height="44" viewBox="0 0 45 44" fill="none" xmlns="http://www.w3.org/2000/svg">
<path d="M43.4289 21.8264L43.3945 21.8706C43.3945 25.4202 42.4961 28.9108 40.7876 32.0184C39.8548 33.7122 38.7011 35.2587 37.3559 36.6284C36.2316 37.7723 34.9797 38.7886 33.6149 39.6575C30.6201 41.5526 27.1933 42.667 23.6585 42.888C20.1237 43.1089 16.5939 42.4314 13.388 40.9291C13.3831 40.9242 13.3782 40.9193 13.3782 40.9193L12.8921 40.6885L12.1311 40.286L11.9053 40.1583C11.7384 40.065 11.5764 39.9668 11.4193 39.8637C8.67002 38.1798 6.34289 35.8871 4.61476 33.1574C2.78354 30.2658 1.6937 26.9715 1.41877 23.5595C1.15366 20.1523 1.71333 16.7255 3.06834 13.5835C4.41843 10.4414 6.51474 7.67742 9.18057 5.52708C9.64697 5.14906 10.1281 4.79557 10.6191 4.46173C12.2637 3.34728 14.0557 2.47341 15.9458 1.86464C16.7264 1.61426 17.5266 1.40806 18.3367 1.24605C21.6898 0.588182 25.1559 0.755099 28.4354 1.73208C28.5581 1.77135 28.6858 1.80573 28.8134 1.84991C31.9457 2.85144 34.798 4.56974 37.1447 6.87718C39.5847 9.26808 41.4062 12.2285 42.447 15.4834C43.0999 17.5356 43.4338 19.6761 43.4289 21.8264Z" stroke="#0448A3" stroke-width="1.47283" stroke-miterlimit="10" stroke-linecap="round"/>
<path d="M42.9379 21.8264L42.9036 21.8706C42.9036 25.4201 42.0051 28.9107 40.2966 32.0184C39.3638 33.7121 38.2101 35.2586 36.8649 36.6283C36.5949 36.5743 36.3445 36.4614 36.1187 36.2994C35.8781 36.1325 35.6768 35.9214 35.5197 35.671C35.2694 35.1113 35.2006 34.4829 35.3283 33.884C35.6081 32.4259 36.1039 31.0169 36.7913 29.7011C37.0318 29.2691 37.1889 28.7978 37.2626 28.3068C36.9483 27.8061 36.7471 27.2415 36.6734 26.6573C36.5998 26.073 36.6538 25.479 36.8306 24.9144C36.1874 24.3891 35.3823 24.0896 34.5526 24.0651C33.7278 24.0405 32.9276 23.8049 32.2255 23.3827C31.6167 22.7837 31.1994 22.0227 31.0227 21.1881C30.7576 20.599 30.7183 19.9313 30.9048 19.3176C31.1012 18.974 31.3271 18.65 31.5824 18.3456C32.1715 17.457 32.0537 16.2738 32.5053 15.3165C32.849 14.7322 33.3449 14.2413 33.934 13.9074C34.528 13.5736 35.1957 13.4018 35.8781 13.4067C36.4574 13.3576 37.0368 13.4803 37.5473 13.7553C37.7977 13.8976 37.9941 14.1185 38.1169 14.3787C38.2347 14.6439 38.269 14.9335 38.2199 15.2183C38.431 15.1839 38.6176 15.0661 38.7452 14.8942C38.868 14.7224 38.922 14.5064 38.8925 14.2953C38.8091 13.8731 38.6127 13.4754 38.3279 13.1563C38.0039 12.6261 37.562 12.1842 37.0318 11.8602C36.7667 11.708 36.4575 11.6442 36.1531 11.6786C35.8487 11.7129 35.5639 11.8455 35.343 12.0615C35.1172 12.3511 35.0288 12.7341 34.7686 12.9648C34.6409 13.0434 34.4986 13.1023 34.3513 13.1219C34.1991 13.1465 34.0469 13.1367 33.8996 13.0974C33.7572 13.0581 33.6198 12.9894 33.502 12.8961C33.3841 12.7979 33.2908 12.6801 33.2221 12.5475C32.9766 11.9878 32.8932 11.3644 32.9963 10.7605C32.9963 10.2352 33.0699 9.69515 33.1141 9.16984C33.1386 8.998 33.1141 8.82618 33.0404 8.66416C32.741 8.22231 31.926 8.66416 31.5284 8.34014C32.1519 7.91793 32.9079 7.74119 33.6492 7.83447C33.6639 7.76573 33.6639 7.697 33.6492 7.62826C33.6394 7.56444 33.61 7.50062 33.5707 7.44662C33.5314 7.39261 33.4823 7.34352 33.4185 7.30915C33.3645 7.26988 33.3007 7.25024 33.2319 7.23551H33.0748C33.3547 6.44509 32.5102 5.68903 31.6953 5.49757C30.8607 5.44356 30.0309 5.3061 29.2258 5.08026C28.8478 4.90843 28.5287 4.63351 28.298 4.28985C28.0672 3.94619 27.9396 3.54852 27.9199 3.13613C27.915 2.67464 28.0524 2.22788 28.3126 1.84985C31.4449 2.85138 34.2973 4.56968 36.644 6.87712C39.084 9.26802 40.9054 12.2284 41.9462 15.4834C42.609 17.5355 42.9428 19.676 42.9379 21.8264Z" fill="#0448A3"/>
<path d="M25.2982 26.7605C25.1607 27.2466 24.9006 27.6933 24.5422 28.0517C23.9236 28.8274 23.1381 29.4558 22.5932 30.2904C22.2053 30.8795 21.9451 31.5718 21.4983 32.1266C20.7963 32.9612 19.672 33.4275 19.1614 34.3751C18.9601 34.7629 18.8619 35.2097 18.6214 35.5828C17.9439 36.6334 16.3729 36.6727 15.499 37.576C14.7478 38.3615 14.6251 39.8098 14.3698 40.9243C14.3649 40.9194 14.36 40.9144 14.36 40.9144L13.874 40.6837L13.113 40.2811L12.8872 40.1535C12.7203 40.0602 12.5583 39.962 12.4012 39.8589C12.1115 37.1637 12.6123 33.9823 11.9102 31.3754C11.6353 30.5948 11.4438 29.7848 11.3407 28.96C11.3407 27.7522 11.8464 26.3923 11.0756 25.4988C10.7172 25.0766 10.133 24.8851 9.86787 24.4138C9.33274 23.5743 10.0201 22.4795 10.8105 21.8609C11.596 21.2472 12.5975 20.7514 12.9117 19.8038C12.3618 19.9118 11.7874 19.8186 11.3063 19.5338C10.8203 19.254 10.4521 18.8023 10.2753 18.2721C10.0446 17.5308 10.128 16.5538 9.46526 16.1709C9.07741 15.9401 8.58158 16.0236 8.25755 15.7928C7.95808 15.5866 7.73227 15.2872 7.60953 14.9484C6.99094 13.8438 6.77 12.5673 6.9762 11.3203C7.57024 8.99816 10.4864 7.93773 11.3161 5.68429C11.4487 5.28663 11.542 4.87422 11.596 4.46183C13.2407 3.34739 15.0326 2.47352 16.9227 1.86475C17.1878 2.47352 17.3793 3.16084 17.6592 3.70579C17.9292 4.29001 18.3072 4.8104 18.7687 5.24734C18.9994 5.46827 19.2841 5.62538 19.5934 5.71375C19.9027 5.79721 20.2268 5.80212 20.5361 5.73339C21.2627 5.5321 21.7438 4.79077 22.544 4.7564C22.8337 4.76131 23.1135 4.8595 23.3443 5.03624C23.575 5.21298 23.7419 5.45846 23.8254 5.73339C23.899 6.01323 23.9138 6.30289 23.8647 6.57781C23.8156 6.85765 23.7076 7.12767 23.5505 7.36823C23.1234 7.8739 22.598 8.28138 22.0089 8.57595C21.4149 8.87051 20.7717 9.03744 20.1139 9.07181C18.7883 9.14545 17.5021 9.55784 16.3876 10.2795C15.4352 11.1681 14.8608 12.3808 14.7675 13.6769C13.8838 13.4461 13.8347 12.2482 13.4469 11.4283C13.4223 11.3547 13.3879 11.2909 13.3388 11.2369C13.2848 11.1829 13.2259 11.1338 13.1572 11.0994C13.0197 11.0503 12.8724 11.0503 12.735 11.0994C11.38 11.5805 10.1428 12.3464 9.11179 13.3479C9.11179 13.7849 9.59783 14.0353 10.0299 14.0598C10.4521 14.0107 10.8743 14.104 11.2376 14.3249C11.7237 14.7619 11.3947 15.5326 11.4831 16.2101C11.6009 16.6765 11.8611 17.0889 12.2342 17.3884C12.6024 17.6928 13.059 17.8646 13.5352 17.8941C14.4876 18.0266 15.4597 17.8352 16.4023 17.9775C17.88 18.2917 19.2203 19.0674 20.2219 20.2064C21.2038 21.3356 22.274 22.396 23.413 23.373C24.1396 23.918 25.0086 24.3991 25.3375 25.2582C25.4504 25.7541 25.4357 26.2696 25.2982 26.7605Z" fill="#0448A3"/>
</svg>
