<svg xmlns="http://www.w3.org/2000/svg" fill="none" viewBox="34.42 0.73 26.94 26.93">
<path d="M61.3411 14.1858C61.3411 16.4565 60.7675 18.6904 59.6733 20.68C58.5791 22.6697 56.9999 24.3506 55.0824 25.5667C53.1648 26.7828 50.9711 27.4947 48.7049 27.6362C46.4386 27.7777 44.1734 27.3443 42.1194 26.3763L41.8111 26.2258L41.3222 25.9701L41.1794 25.8874C39.2812 24.7958 37.6776 23.258 36.5074 21.4072C35.3372 19.5564 34.6357 17.4483 34.4634 15.2653C34.2911 13.0824 34.6534 10.8904 35.5188 8.87891C36.3843 6.86747 37.7268 5.09722 39.4302 3.72133C41.1337 2.34544 43.1468 1.40537 45.2952 0.982471C47.4437 0.559575 49.6629 0.66659 51.7607 1.29425C53.8585 1.92191 55.7718 3.05131 57.335 4.58472C58.8981 6.11813 60.0641 8.00936 60.732 10.0947C61.1526 11.4073 61.3657 12.7774 61.3637 14.1557L61.3411 14.1858Z" fill="#2F80ED"/>
<path d="M61.0271 14.2234C61.0286 15.9728 60.6793 17.7047 59.9999 19.3167C59.3204 20.9288 58.3247 22.3882 57.0714 23.6088C56.8923 23.5719 56.7225 23.4988 56.5725 23.394C56.4225 23.2893 56.2954 23.1551 56.199 22.9996C56.0398 22.6487 55.9976 22.2558 56.0787 21.8791C56.2561 20.9645 56.5652 20.0804 56.9962 19.2545C57.1461 18.9839 57.2454 18.6883 57.2895 18.3821C57.0929 18.0682 56.9669 17.7153 56.9201 17.3478C56.8734 16.9803 56.907 16.6071 57.0187 16.2539C56.6146 15.9228 56.1122 15.735 55.5899 15.7199C55.0745 15.7071 54.5714 15.5593 54.1309 15.2913C53.7496 14.9171 53.4879 14.4381 53.3789 13.9151C53.2131 13.5459 53.1864 13.1292 53.3037 12.7419C53.4277 12.5262 53.5711 12.3223 53.7323 12.1328C54.1008 11.5763 54.0256 10.8317 54.3114 10.2301C54.5266 9.86189 54.8356 9.55725 55.2068 9.34722C55.578 9.13718 55.9982 9.02925 56.4247 9.03438C56.7869 9.00364 57.1503 9.07945 57.47 9.25248C57.6267 9.34288 57.7513 9.47973 57.8268 9.6441C57.9022 9.80847 57.9247 9.99224 57.8911 10.17C58.0231 10.1478 58.1412 10.0747 58.2199 9.96641C58.2987 9.85814 58.3319 9.72332 58.3123 9.59088C58.2609 9.32528 58.1387 9.07848 57.9588 8.87646C57.7557 8.54559 57.4775 8.2673 57.1466 8.06425C56.9799 7.96755 56.7864 7.92772 56.5951 7.95079C56.4038 7.97385 56.2251 8.05857 56.0862 8.19211C55.9433 8.3726 55.8907 8.61325 55.7253 8.75613C55.6456 8.80742 55.5561 8.84141 55.4624 8.8559C55.3688 8.87039 55.2731 8.86506 55.1817 8.84025C55.0902 8.81544 55.005 8.77169 54.9315 8.71186C54.8581 8.65203 54.7979 8.57744 54.7551 8.49292C54.5978 8.14172 54.5482 7.75182 54.6123 7.3724C54.6123 7.0415 54.6574 6.70307 54.6874 6.37218C54.7027 6.26475 54.6871 6.15521 54.6424 6.05634C54.4544 5.77809 53.943 6.05632 53.6948 5.85328C54.0854 5.58987 54.5586 5.47761 55.0259 5.53743C55.0346 5.49535 55.0345 5.45193 55.0258 5.40985C55.0171 5.36778 54.9999 5.32794 54.9752 5.29274C54.9506 5.25754 54.9191 5.22774 54.8825 5.20516C54.846 5.18258 54.8051 5.1677 54.7626 5.16142H54.6649C54.8378 4.66508 54.3115 4.19129 53.8001 4.07096C53.2758 4.0384 52.7565 3.95016 52.2509 3.80774C52.0152 3.6999 51.814 3.52907 51.6694 3.31409C51.5247 3.0991 51.4423 2.84833 51.4312 2.58946C51.4299 2.24475 51.5527 1.9111 51.7771 1.64941C54.4545 2.49123 56.7942 4.1637 58.4573 6.42446C60.1205 8.68522 61.0206 11.4168 61.0271 14.2234Z" fill="#0448A3"/>
<path d="M48.7087 18.0364C48.3251 18.5177 47.8363 18.9088 47.4979 19.4277C47.2573 19.7962 47.0918 20.2248 46.8135 20.5708C46.3774 21.0897 45.6779 21.3829 45.3621 21.9695C45.2342 22.2102 45.1741 22.4884 45.0237 22.7216C44.6026 23.3758 43.625 23.3984 43.0835 23.9624C42.542 24.5265 42.6021 25.3086 42.3765 26.0155C42.0983 25.8801 41.3839 25.4815 41.1884 25.3687C40.9402 23.6391 41.3086 21.8116 40.8499 20.1045C40.6787 19.6172 40.5602 19.113 40.4965 18.6004C40.4965 17.8484 40.8123 17.0061 40.331 16.4496C40.1054 16.1864 39.7444 16.0661 39.579 15.7728C39.2481 15.2539 39.6768 14.5695 40.1656 14.186C40.6544 13.8025 41.2786 13.4941 41.4741 12.9075C41.1315 12.9748 40.776 12.915 40.4742 12.7392C40.1725 12.5634 39.9451 12.2837 39.8347 11.9525C39.6918 11.4937 39.7445 10.8846 39.3309 10.6439C39.0902 10.501 38.7819 10.5537 38.5788 10.4108C38.3916 10.2822 38.2495 10.0981 38.1727 9.88438C37.7877 9.19936 37.6496 8.4029 37.7816 7.62828C38.1501 6.18437 39.9625 5.52258 40.4814 4.1238C40.5734 3.84782 40.6364 3.56302 40.6694 3.274C41.6876 2.60552 42.7936 2.08161 43.9558 1.71729C44.1288 2.10082 44.2491 2.54452 44.4296 2.89046C44.5963 3.25277 44.8312 3.57958 45.1215 3.85306C45.2654 3.98993 45.441 4.08905 45.6326 4.14154C45.8242 4.19403 46.0258 4.19828 46.2194 4.15389C46.6706 4.02604 46.9715 3.56728 47.4678 3.54472C47.6481 3.54852 47.8225 3.60961 47.9658 3.71912C48.1091 3.82863 48.2139 3.9809 48.2649 4.15389C48.3104 4.32563 48.3186 4.50514 48.2888 4.6803C48.2589 4.85545 48.1918 5.02214 48.092 5.16911C47.827 5.4821 47.5009 5.73763 47.1337 5.91998C46.7664 6.10232 46.3657 6.20764 45.9562 6.22948C45.1315 6.27267 44.3328 6.53202 43.64 6.98152C43.0477 7.53221 42.6873 8.28783 42.6322 9.09473C42.0832 8.95184 42.0532 8.20734 41.8125 7.69596C41.7977 7.65168 41.774 7.61087 41.743 7.57597C41.712 7.54108 41.6743 7.51281 41.632 7.49289C41.5468 7.46309 41.454 7.46309 41.3688 7.49289C40.5252 7.792 39.7558 8.26906 39.1127 8.89169C39.1127 9.16242 39.4136 9.32034 39.6843 9.33538C39.9464 9.30553 40.211 9.36374 40.4363 9.50083C40.7371 9.77156 40.5341 10.2529 40.5867 10.674C40.6602 10.9619 40.824 11.2188 41.0541 11.4069C41.2841 11.595 41.5684 11.7045 41.8652 11.7193C42.4593 11.8021 43.0609 11.6817 43.6475 11.772C44.5683 11.9644 45.402 12.4499 46.0239 13.1557C46.6361 13.8606 47.2997 14.5192 48.0092 15.126C48.4605 15.4645 49.0019 15.7653 49.205 16.2992C49.2755 16.6071 49.2669 16.9279 49.1802 17.2316C49.0934 17.5354 48.9312 17.8122 48.7087 18.0364Z" fill="#0448A3"/>
</svg>