<svg width="28" height="28" viewBox="0 0 28 28" fill="none" xmlns="http://www.w3.org/2000/svg">
<path d="M17.1899 7.60364C16.3499 7.54364 16.0999 7.54364 13.9999 7.54364C11.8999 7.54364 11.6299 7.54364 10.7999 7.59364C8.64993 7.69364 7.64993 8.70364 7.54993 10.8336C7.54993 11.6736 7.54993 11.9236 7.54993 14.0336C7.54993 16.1436 7.54993 16.4036 7.54993 17.2336C7.64993 19.3636 8.64993 20.3836 10.7999 20.4836C11.6299 20.4836 11.8799 20.4836 13.9999 20.4836C16.1199 20.4836 16.3599 20.4836 17.1999 20.4836C19.3399 20.3836 20.3399 19.3636 20.4399 17.2336C20.4399 16.4036 20.4899 16.1536 20.4899 14.0336C20.4899 11.9136 20.4899 11.6736 20.4399 10.8336C20.3299 8.72364 19.3299 7.70364 17.1899 7.60364ZM13.9999 18.1136C13.1945 18.1156 12.4067 17.8786 11.736 17.4326C11.0654 16.9866 10.5422 16.3516 10.2326 15.6081C9.92303 14.8646 9.84101 14.0459 9.99692 13.2558C10.1528 12.4656 10.5397 11.7395 11.1085 11.1693C11.6773 10.5991 12.4025 10.2104 13.1922 10.0526C13.982 9.89473 14.8009 9.97475 15.5451 10.2825C16.2894 10.5903 16.9256 11.1119 17.3733 11.7814C17.821 12.451 18.0599 13.2382 18.0599 14.0436C18.0599 15.1213 17.6325 16.155 16.8714 16.918C16.1103 17.681 15.0776 18.111 13.9999 18.1136ZM18.2199 10.7736C18.0697 10.823 17.91 10.8361 17.7538 10.8117C17.5975 10.7874 17.4493 10.7264 17.3213 10.6337C17.1932 10.5409 17.089 10.4192 17.0171 10.2784C16.9452 10.1376 16.9077 9.98173 16.9077 9.82364C16.9077 9.66554 16.9452 9.50969 17.0171 9.36889C17.089 9.22808 17.1932 9.10633 17.3213 9.01362C17.4493 8.92091 17.5975 8.85989 17.7538 8.83555C17.91 8.81122 18.0697 8.82427 18.2199 8.87364C18.42 8.9394 18.5942 9.06664 18.7177 9.23723C18.8412 9.40781 18.9077 9.61304 18.9077 9.82364C18.9077 10.0342 18.8412 10.2395 18.7177 10.41C18.5942 10.5806 18.42 10.7079 18.2199 10.7736ZM16.6299 14.0436C16.6299 14.5662 16.4748 15.077 16.1843 15.5114C15.8938 15.9457 15.4809 16.2841 14.9979 16.4836C14.5149 16.6831 13.9836 16.7348 13.4712 16.6322C12.9588 16.5295 12.4884 16.277 12.1196 15.9068C11.7508 15.5366 11.5002 15.0653 11.3994 14.5525C11.2987 14.0398 11.3524 13.5086 11.5538 13.0264C11.7551 12.5442 12.095 12.1326 12.5305 11.8437C12.966 11.5548 13.4774 11.4017 13.9999 11.4036C14.6984 11.4063 15.3673 11.6856 15.8602 12.1804C16.3532 12.6752 16.6299 13.3452 16.6299 14.0436ZM13.9999 0.473636C11.3156 0.471658 8.69101 1.26584 6.45812 2.75573C4.22523 4.24562 2.48437 6.36427 1.45576 8.84369C0.42714 11.3231 0.156982 14.0519 0.679454 16.6849C1.20193 19.3179 2.49355 21.7367 4.39095 23.6355C6.28835 25.5343 8.70628 26.8277 11.3389 27.3522C13.9715 27.8766 16.7005 27.6084 19.1806 26.5816C21.6608 25.5548 23.7807 23.8156 25.2723 21.5838C26.7638 19.352 27.5599 16.728 27.5599 14.0436C27.5599 10.4464 26.1316 6.99631 23.5889 4.45173C21.0462 1.90715 17.5972 0.476287 13.9999 0.473636ZM21.8599 17.3136C21.8931 17.9264 21.7969 18.5394 21.5775 19.1125C21.358 19.6856 21.0203 20.2061 20.5864 20.6401C20.1524 21.074 19.6319 21.4117 19.0588 21.6312C18.4857 21.8506 17.8727 21.9468 17.2599 21.9136C16.4199 21.9136 16.1499 21.9636 13.9999 21.9636C11.8499 21.9636 11.5799 21.9636 10.7299 21.9136C10.1171 21.9468 9.50419 21.8506 8.93106 21.6312C8.35792 21.4117 7.83743 21.074 7.40347 20.6401C6.96952 20.2061 6.63183 19.6856 6.4124 19.1125C6.19298 18.5394 6.09673 17.9264 6.12993 17.3136C6.12993 16.4636 6.12993 16.1936 6.12993 14.0436C6.12993 11.8936 6.12993 11.6236 6.12993 10.7836C6.25993 7.90364 7.85993 6.31364 10.7299 6.18364C11.5799 6.18364 11.8499 6.13364 13.9999 6.13364C16.1499 6.13364 16.4199 6.13364 17.2599 6.18364C20.1399 6.31364 21.7399 7.91364 21.8599 10.7836C21.8599 11.6236 21.8599 11.8936 21.8599 14.0436C21.8599 16.1936 21.8899 16.4636 21.8499 17.3136H21.8599Z" fill="#808080"/>
</svg>
