<svg width="53" height="37" viewBox="0 0 53 37" fill="none" xmlns="http://www.w3.org/2000/svg">
<rect x="5.95447" y="5.36011" width="40.7684" height="27.4327" fill="#2F80ED"/>
<path d="M46.7871 0.874512H6.78602C4.03595 0.874512 1.81089 3.12457 1.81089 5.87464L1.78589 30.8753C1.78589 33.6254 4.03595 35.8754 6.78602 35.8754H46.7871C49.5371 35.8754 51.7872 33.6254 51.7872 30.8753V5.87464C51.7872 3.12457 49.5371 0.874512 46.7871 0.874512ZM24.2865 8.37471H29.2866V13.3748H24.2865V8.37471ZM24.2865 15.8749H29.2866V20.875H24.2865V15.8749ZM16.7863 8.37471H21.7864V13.3748H16.7863V8.37471ZM16.7863 15.8749H21.7864V20.875H16.7863V15.8749ZM14.2862 20.875H9.28608V15.8749H14.2862V20.875ZM14.2862 13.3748H9.28608V8.37471H14.2862V13.3748ZM36.7868 30.8753H16.7863V25.8752H36.7868V30.8753ZM36.7868 20.875H31.7867V15.8749H36.7868V20.875ZM36.7868 13.3748H31.7867V8.37471H36.7868V13.3748ZM44.287 20.875H39.2869V15.8749H44.287V20.875ZM44.287 13.3748H39.2869V8.37471H44.287V13.3748Z" fill="#0448A3"/>
<path d="M1.94885 5.67879V5.67761C1.94885 3.45985 3.72215 1.67538 5.8725 1.67538H46.9306C49.0886 1.67538 50.8799 3.46762 50.8799 5.67761V31.6035C50.8799 33.8135 49.0886 35.6058 46.9306 35.6058H5.8725C3.71466 35.6058 1.92347 33.8138 1.92318 31.6041C1.92318 31.6039 1.92318 31.6037 1.92318 31.6035L1.94885 5.67879Z" stroke="#2F80ED" stroke-width="2.3659"/>
</svg>
