<svg width="28" height="28" viewBox="0 0 28 28" fill="none" xmlns="http://www.w3.org/2000/svg">
<path d="M13.9196 0.473633C11.2357 0.473633 8.61209 1.2695 6.38052 2.76059C4.14894 4.25168 2.40964 6.37103 1.38256 8.85062C0.355482 11.3302 0.0867602 14.0587 0.610362 16.691C1.13396 19.3233 2.42637 21.7413 4.32417 23.6391C6.22197 25.5369 8.63992 26.8293 11.2722 27.3529C13.9046 27.8765 16.633 27.6078 19.1126 26.5807C21.5922 25.5536 23.7116 23.8143 25.2027 21.5827C26.6938 19.3511 27.4896 16.7275 27.4896 14.0436C27.487 10.4455 26.0564 6.99541 23.5121 4.45112C20.9678 1.90682 17.5178 0.476281 13.9196 0.473633ZM11.6596 18.5436H9.39961V11.7836H11.6596V18.5436ZM10.5296 10.7436C10.2799 10.7454 10.0353 10.6724 9.82751 10.5339C9.61968 10.3954 9.45809 10.1979 9.36358 9.96671C9.26907 9.73554 9.24596 9.48137 9.29725 9.23695C9.34854 8.99254 9.47187 8.76909 9.65133 8.59541C9.83079 8.42174 10.0582 8.3058 10.3041 8.26255C10.5501 8.2193 10.8034 8.25072 11.0313 8.35276C11.2593 8.45479 11.4514 8.62277 11.583 8.83503C11.7146 9.04728 11.7796 9.29409 11.7696 9.54363C11.7644 9.86995 11.6318 10.1813 11.4001 10.4111C11.1684 10.641 10.856 10.7711 10.5296 10.7736V10.7436ZM19.5296 18.5436H17.2696V15.3336C17.2696 13.2036 15.0096 13.3836 15.0096 15.3336V18.5436H12.7496V11.7836H15.0096V13.0236C16.0096 11.1936 19.5296 11.0236 19.5296 14.7736V18.5436Z" fill="#808080"/>
</svg>
