<svg width="32" height="41" viewBox="0 0 32 41" fill="none" xmlns="http://www.w3.org/2000/svg">
<path d="M26.6847 13.6604H25.6949V10.8995C25.6949 5.57993 21.3779 1.263 16.0584 1.263C10.7388 1.263 6.42189 5.57993 6.42189 10.8995V13.6604H5.43201C3.05241 13.6604 1.1087 15.6041 1.1087 17.9837L1.1087 17.9853L1.15146 39.238L1.15303 40.0177H1.93265H30.2402H31.0219L31.0214 39.236L31.0081 17.9837C31.0081 17.9836 31.0081 17.9834 31.0081 17.9833C31.0078 15.6039 29.0642 13.6604 26.6847 13.6604ZM16.0584 29.6C14.5417 29.6 13.2975 28.3558 13.2975 26.839C13.2975 25.3223 14.5417 24.0781 16.0584 24.0781C17.5751 24.0781 18.8193 25.3223 18.8193 26.839C18.8193 28.3558 17.5751 29.6 16.0584 29.6ZM11.3493 13.6604V10.8995C11.3493 8.30242 13.4613 6.1904 16.0584 6.1904C18.6555 6.1904 20.7675 8.30242 20.7675 10.8995V13.6604H11.3493Z" fill="#0448A3" stroke="#2F80ED" stroke-width="1.56238"/>
</svg>
