<svg width="28" height="33" viewBox="0 0 28 33" fill="none" xmlns="http://www.w3.org/2000/svg">
<path d="M9.04644 15.5743C9.04644 18.0087 10.6998 20.256 13.0986 20.6736C16.2414 21.2211 18.9333 18.8346 18.9333 15.8009L18.9496 5.89779C18.9496 2.85864 16.2282 0.46909 13.0832 1.02743C10.6913 1.45198 9.04644 3.69615 9.04644 6.12514V15.5743ZM22.7234 15.8574C22.7234 20.8004 18.5382 24.261 13.9903 24.261C9.44238 24.261 5.25718 20.8004 5.25718 15.8574H1.45544C1.45544 21.4925 5.9376 27.1232 11.3423 27.9305V32.3352H16.6382V27.9305C22.0429 27.1394 26.5251 21.4925 26.5251 15.8574H22.7234Z" fill="#0448A3" stroke="#2F80ED" stroke-width="1.3" stroke-miterlimit="10"/>
</svg>
