<svg width="71" height="50" viewBox="0 0 71 50" fill="none" xmlns="http://www.w3.org/2000/svg">
<path d="M46.7435 25.4532C47.2492 25.1047 47.7892 24.8101 48.3636 24.5744C49.3897 24.1571 50.4894 23.946 51.599 23.946H61.1822C63.4258 23.946 65.5712 24.8248 67.1619 26.386C68.7427 27.9472 69.6363 30.0681 69.6412 32.2774V40.1472H53.9309" stroke="#0448A3" stroke-width="1.47283" stroke-miterlimit="10"/>
<path d="M55.8653 20.3816C54.309 20.3816 52.792 19.9349 51.5008 19.1003C50.2096 18.2657 49.2032 17.0776 48.6042 15.6882C48.0102 14.2988 47.8531 12.7671 48.1525 11.2894C48.4569 9.81161 49.2032 8.45661 50.3029 7.39126C51.4026 6.32591 52.8018 5.5993 54.3237 5.30964C55.8456 5.01508 57.4265 5.16727 58.865 5.74168C60.2985 6.31608 61.5259 7.29307 62.3899 8.54498C63.254 9.79689 63.7155 11.2697 63.7155 12.772C63.7155 13.7735 63.5142 14.7603 63.1214 15.6833C62.7287 16.6063 62.1494 17.4458 61.4228 18.1527C60.6913 18.8597 59.8272 19.4194 58.8748 19.8023C57.9174 20.1853 56.8963 20.3816 55.8653 20.3816Z" stroke="#0448A3" stroke-width="1.47283" stroke-miterlimit="10"/>
<path d="M15.6373 40.1472H1.3999V32.2774C1.40481 30.0681 2.27869 27.9472 3.8399 26.386C5.39619 24.8199 7.50726 23.946 9.70669 23.946H19.1132C20.7431 23.946 22.324 24.4272 23.6642 25.3109" stroke="#0448A3" stroke-width="1.47283" stroke-miterlimit="10"/>
<path d="M13.8895 20.3816C12.3823 20.3816 10.9144 19.9349 9.66252 19.1003C8.41061 18.2657 7.43363 17.0776 6.85923 15.6882C6.28482 14.2988 6.13263 12.7671 6.42229 11.2894C6.71686 9.81161 7.43854 8.45661 8.50389 7.39126C9.56924 6.32591 10.9242 5.5993 12.402 5.30964C13.8797 5.01508 15.4066 5.16727 16.8009 5.74168C18.1902 6.31608 19.3783 7.29307 20.2178 8.54498C21.0524 9.79689 21.4992 11.2697 21.4992 12.772C21.4992 13.7735 21.3028 14.7603 20.9199 15.6833C20.5369 16.6063 19.9773 17.4458 19.2703 18.1527C18.5633 18.8597 17.7238 19.4194 16.8009 19.8023C15.8779 20.1853 14.8862 20.3816 13.8895 20.3816Z" stroke="#0448A3" stroke-width="1.47283" stroke-miterlimit="10"/>
<path d="M35.0148 20.3865C33.1149 20.3914 31.2542 19.817 29.6734 18.7418C28.0925 17.6666 26.8554 16.13 26.1288 14.338C25.3973 12.5461 25.2058 10.5676 25.574 8.66272C25.9422 6.75786 26.8554 5.00519 28.2005 3.63054C29.5457 2.2559 31.2542 1.3182 33.1198 0.935264C34.9854 0.557237 36.9148 0.748693 38.6724 1.49002C40.43 2.23134 41.9323 3.49308 42.9878 5.10829C44.0433 6.7235 44.6079 8.62345 44.6079 10.5676C44.6079 13.1696 43.5966 15.6636 41.7997 17.5046C39.9979 19.3408 37.5579 20.3816 35.0148 20.3865Z" stroke="#0448A3" stroke-width="1.47283" stroke-miterlimit="10"/>
<path d="M50.6957 28.0599C49.5469 26.9455 48.2066 26.0667 46.7436 25.453C45.1725 24.7903 43.4641 24.4417 41.7114 24.4368H28.343C26.7229 24.4368 25.1371 24.7362 23.6643 25.3106C22.0638 25.9194 20.5959 26.8522 19.3587 28.055C16.9776 30.3723 15.6373 33.5143 15.6373 36.7938V48.493H54.4219V36.7938C54.417 33.5143 53.0767 30.3772 50.6957 28.0599Z" stroke="#0448A3" stroke-width="1.47283" stroke-miterlimit="10"/>
</svg>
