<svg width="58" height="42" viewBox="0 0 58 42" fill="none" xmlns="http://www.w3.org/2000/svg">
<path d="M54.9766 28.3968V34.6604H34.2639V28.3932C34.2639 27.5207 34.4348 26.6568 34.7669 25.8507C35.0989 25.0446 35.5856 24.3122 36.1991 23.6952C36.8127 23.0783 37.5411 22.5889 38.3427 22.255C39.1443 21.9211 40.0035 21.7493 40.8712 21.7493H48.3693C49.2373 21.7493 50.0968 21.9212 50.8986 22.2553C51.7005 22.5895 52.429 23.0792 53.0426 23.6965C53.6562 24.3138 54.1428 25.0467 54.4746 25.8532C54.8065 26.6597 54.977 27.524 54.9766 28.3968Z" fill="#2F80ED"/>
<path d="M44.2897 19.2112C43.0773 19.2112 41.8921 18.8497 40.884 18.1724C39.876 17.495 39.0902 16.5324 38.6263 15.406C38.1623 14.2797 38.0409 13.0403 38.2775 11.8446C38.514 10.6489 39.0978 9.55054 39.9551 8.68848C40.8124 7.82642 41.9047 7.23934 43.0938 7.0015C44.2829 6.76366 45.5154 6.88573 46.6355 7.35227C47.7556 7.81882 48.713 8.60888 49.3866 9.62255C50.0602 10.6362 50.4197 11.828 50.4197 13.0471C50.4197 14.6819 49.7738 16.2498 48.6242 17.4058C47.4746 18.5618 45.9154 19.2112 44.2897 19.2112Z" fill="#2F80ED"/>
<path d="M21.6786 28.3968V34.6604H0.976563V28.3932C0.976562 27.5204 1.14758 26.6562 1.47985 25.8499C1.81211 25.0436 2.29912 24.311 2.91304 23.694C3.52695 23.077 4.25575 22.5877 5.05779 22.254C5.85982 21.9203 6.71939 21.7488 7.58736 21.7493H15.0713C15.9393 21.7493 16.7988 21.9212 17.6006 22.2553C18.4025 22.5895 19.131 23.0792 19.7446 23.6965C20.3582 24.3138 20.8448 25.0467 21.1767 25.8532C21.5085 26.6597 21.6791 27.524 21.6786 28.3968Z" fill="#2F80ED"/>
<path d="M10.9918 19.2112C9.77943 19.2112 8.59425 18.8497 7.58618 18.1724C6.5781 17.495 5.79241 16.5324 5.32844 15.406C4.86447 14.2797 4.74308 13.0403 4.9796 11.8446C5.21613 10.6489 5.79997 9.55054 6.65726 8.68848C7.51456 7.82642 8.60682 7.23934 9.79593 7.0015C10.985 6.76366 12.2176 6.88573 13.3377 7.35227C14.4578 7.81882 15.4152 8.60888 16.0887 9.62255C16.7623 10.6362 17.1218 11.828 17.1218 13.0471C17.1218 14.6819 16.476 16.2498 15.3264 17.4058C14.1768 18.5618 12.6176 19.2112 10.9918 19.2112Z" fill="#2F80ED"/>
<path d="M27.7874 19.5276C26.1828 19.5276 24.6142 19.0491 23.28 18.1527C21.9457 17.2562 20.9059 15.9821 20.2918 14.4913C19.6777 13.0006 19.517 11.3602 19.8301 9.77765C20.1431 8.19509 20.9159 6.74141 22.0505 5.60045C23.1852 4.45949 24.6308 3.68249 26.2046 3.3677C27.7784 3.05291 29.4097 3.21447 30.8923 3.83195C32.3748 4.44944 33.6419 5.49511 34.5334 6.83674C35.4249 8.17837 35.9007 9.75571 35.9007 11.3693C35.9012 12.4408 35.6916 13.5018 35.2841 14.4919C34.8765 15.4819 34.2789 16.3815 33.5254 17.1391C32.7719 17.8968 31.8774 18.4977 30.8928 18.9075C29.9082 19.3174 28.853 19.528 27.7874 19.5276Z" fill="#0448A3"/>
<path d="M27.7874 20.2386C26.043 20.2386 24.3376 19.7184 22.8872 18.7438C21.4367 17.7693 20.3062 16.3841 19.6386 14.7634C18.971 13.1428 18.7963 11.3595 19.1366 9.63898C19.477 7.91851 20.317 6.33816 21.5506 5.09777C22.7841 3.85738 24.3557 3.01265 26.0667 2.67042C27.7777 2.3282 29.5511 2.50384 31.1628 3.17514C32.7745 3.84643 34.1521 4.98324 35.1212 6.44179C36.0904 7.90033 36.6077 9.61513 36.6077 11.3693C36.6031 13.7201 35.6723 15.9733 34.0192 17.6356C32.3661 19.2979 30.1253 20.2339 27.7874 20.2386ZM27.7874 3.92551C26.3225 3.92551 24.8904 4.36236 23.6724 5.18085C22.4544 5.99933 21.5051 7.16266 20.9447 8.52369C20.3842 9.88473 20.2377 11.3823 20.5238 12.8271C20.8099 14.2718 21.5156 15.5988 22.5517 16.6402C23.5879 17.6816 24.9078 18.3906 26.3447 18.6776C27.7816 18.9645 29.2709 18.8165 30.6241 18.2523C31.9774 17.6881 33.1338 16.733 33.9472 15.5078C34.7606 14.2826 35.1944 12.8424 35.1937 11.3693C35.1881 9.39621 34.4058 7.50558 33.018 6.11071C31.6302 4.71584 29.7496 3.9302 27.7874 3.92551Z" fill="#2F80ED"/>
<path d="M42.2711 32.0263V40.789H13.3038V32.0228C13.3038 30.8022 13.543 29.5936 14.0076 28.4659C14.4722 27.3383 15.1532 26.3138 16.0117 25.4509C16.8702 24.588 17.8893 23.9036 19.0109 23.4368C20.1325 22.97 21.3345 22.73 22.5483 22.7305H33.0231C35.4752 22.7305 37.8269 23.7097 39.5612 25.453C41.2954 27.1962 42.2702 29.5606 42.2711 32.0263Z" fill="#0448A3"/>
<path d="M42.9782 41.5H12.5968V32.0228C12.5977 29.3695 13.6466 26.8251 15.5128 24.9492C17.379 23.0733 19.9096 22.0195 22.5483 22.0195H33.0231C35.6619 22.0224 38.1918 23.0774 40.0581 24.9534C41.9243 26.8293 42.9744 29.3729 42.9782 32.0264V41.5ZM23.0857 40.078H41.5641V32.0264C41.5613 29.7498 40.6604 27.5673 39.0592 25.9578C37.4579 24.3483 35.2871 23.4433 33.0231 23.4415H22.5483C20.285 23.4424 18.1145 24.3467 16.5137 25.9557C14.9129 27.5647 14.0127 29.7469 14.0109 32.0228V40.078H23.0857Z" fill="#2F80ED"/>
<circle cx="53.9766" cy="4.75439" r="4" fill="#F91A2A"/>
</svg>
