<svg width="41" height="42" viewBox="0 0 41 42" fill="none" xmlns="http://www.w3.org/2000/svg">
<path d="M33.7547 40.7783H5.00146L7.13002 30.4203V5.22192H33.7547V40.7783Z" fill="white"/>
<path d="M34.4677 41.5H4.12878L6.42051 30.3552V4.5H34.4677V41.5ZM5.87419 40.0564H33.0487V5.94362H7.83955V30.4852L5.87419 40.0564Z" fill="#2F80ED"/>
<path d="M18.1667 11.5125H10.5713V23.8374H18.1667V11.5125Z" fill="#0448A3"/>
<path d="M18.8762 24.5591H9.86182V10.7905H18.8762V24.5591ZM11.2809 23.1154H17.4572V12.2341H11.2809V23.1154Z" fill="#2F80ED"/>
<path d="M29.7709 12.2341H21.8207C21.6325 12.2341 21.4521 12.1581 21.319 12.0227C21.1859 11.8874 21.1112 11.7038 21.1112 11.5123C21.1112 11.3209 21.1859 11.1373 21.319 11.002C21.4521 10.8666 21.6325 10.7905 21.8207 10.7905H29.7709C29.959 10.7905 30.1395 10.8666 30.2726 11.002C30.4056 11.1373 30.4804 11.3209 30.4804 11.5123C30.4804 11.7038 30.4056 11.8874 30.2726 12.0227C30.1395 12.1581 29.959 12.2341 29.7709 12.2341Z" fill="#0448A3"/>
<path d="M29.7709 17.9077H21.8207C21.6325 17.9077 21.4521 17.8317 21.319 17.6963C21.1859 17.5609 21.1112 17.3774 21.1112 17.1859C21.1112 16.9945 21.1859 16.8109 21.319 16.6755C21.4521 16.5401 21.6325 16.4641 21.8207 16.4641H29.7709C29.959 16.4641 30.1395 16.5401 30.2726 16.6755C30.4056 16.8109 30.4804 16.9945 30.4804 17.1859C30.4804 17.3774 30.4056 17.5609 30.2726 17.6963C30.1395 17.8317 29.959 17.9077 29.7709 17.9077Z" fill="#0448A3"/>
<path d="M29.7709 23.5847H21.8207C21.6325 23.5847 21.4521 23.5087 21.319 23.3733C21.1859 23.238 21.1112 23.0544 21.1112 22.8629C21.1112 22.6715 21.1859 22.4879 21.319 22.3525C21.4521 22.2172 21.6325 22.1411 21.8207 22.1411H29.7709C29.959 22.1411 30.1395 22.2172 30.2726 22.3525C30.4056 22.4879 30.4804 22.6715 30.4804 22.8629C30.4804 23.0544 30.4056 23.238 30.2726 23.3733C30.1395 23.5087 29.959 23.5847 29.7709 23.5847Z" fill="#0448A3"/>
<path d="M29.7709 29.2725H10.5713C10.3832 29.2725 10.2027 29.1964 10.0696 29.0611C9.93658 28.9257 9.86182 28.7421 9.86182 28.5507C9.86182 28.3592 9.93658 28.1756 10.0696 28.0403C10.2027 27.9049 10.3832 27.8289 10.5713 27.8289H29.7709C29.9591 27.8289 30.1395 27.9049 30.2726 28.0403C30.4057 28.1756 30.4804 28.3592 30.4804 28.5507C30.4804 28.7421 30.4057 28.9257 30.2726 29.0611C30.1395 29.1964 29.9591 29.2725 29.7709 29.2725Z" fill="#0448A3"/>
<path d="M29.7709 34.9351H10.5713C10.3832 34.9351 10.2027 34.859 10.0696 34.7237C9.93658 34.5883 9.86182 34.4047 9.86182 34.2133C9.86182 34.0218 9.93658 33.8382 10.0696 33.7029C10.2027 33.5675 10.3832 33.4915 10.5713 33.4915H29.7709C29.9591 33.4915 30.1395 33.5675 30.2726 33.7029C30.4057 33.8382 30.4804 34.0218 30.4804 34.2133C30.4804 34.4047 30.4057 34.5883 30.2726 34.7237C30.1395 34.859 29.9591 34.9351 29.7709 34.9351Z" fill="#0448A3"/>
<path d="M4.15366 40.7783C3.36426 40.7783 2.6072 40.4592 2.04901 39.8914C1.49082 39.3235 1.17725 38.5533 1.17725 37.7503V18.5754C1.17725 17.7723 1.49082 17.0021 2.04901 16.4343C2.6072 15.8664 3.36426 15.5474 4.15366 15.5474H7.13009V37.7503C7.13055 38.148 7.0539 38.542 6.90449 38.9096C6.75507 39.2772 6.53584 39.6112 6.25937 39.8924C5.98289 40.1737 5.65457 40.3967 5.29324 40.5487C4.93191 40.7007 4.54466 40.7787 4.15366 40.7783Z" fill="white"/>
<path d="M4.1537 41.5001C3.17642 41.4991 2.23944 41.1038 1.5484 40.4008C0.857352 39.6977 0.468713 38.7445 0.467773 37.7503V18.5754C0.471525 17.5831 0.861402 16.6326 1.55214 15.9319C2.24288 15.2313 3.17825 14.8374 4.1537 14.8364H7.83965V37.7611C7.8359 38.7535 7.44602 39.7039 6.75528 40.4046C6.06454 41.1053 5.12915 41.4992 4.1537 41.5001ZM4.1537 16.2692C3.55277 16.2702 2.97673 16.5134 2.55181 16.9457C2.12688 17.378 1.88775 17.9641 1.88681 18.5754V37.7503C1.88681 38.3619 2.12564 38.9485 2.55077 39.381C2.9759 39.8135 3.55248 40.0565 4.1537 40.0565C4.75492 40.0565 5.33153 39.8135 5.75665 39.381C6.18178 38.9485 6.42061 38.3619 6.42061 37.7503V16.28L4.1537 16.2692Z" fill="#2F80ED"/>
<circle cx="36.4678" cy="4.75439" r="4" fill="#F91A2A"/>
</svg>
