<svg width="23" height="24" viewBox="0 0 23 24" fill="none" xmlns="http://www.w3.org/2000/svg">
<path d="M11.4997 0.907227C9.24359 0.907227 7.03818 1.56337 5.16233 2.79269C3.28648 4.02201 1.82443 5.76929 0.961074 7.81357C0.0977147 9.85785 -0.128178 12.1073 0.311959 14.2775C0.752096 16.4477 1.83849 18.4412 3.43377 20.0058C5.02905 21.5704 7.06156 22.6359 9.27428 23.0676C11.487 23.4993 13.7805 23.2777 15.8649 22.431C17.9492 21.5842 19.7307 20.1503 20.9841 18.3105C22.2375 16.4706 22.9065 14.3076 22.9065 12.0949C22.9065 10.6257 22.6115 9.17092 22.0382 7.81357C21.465 6.45622 20.6248 5.2229 19.5655 4.18402C18.5063 3.14515 17.2488 2.32107 15.8649 1.75884C14.4809 1.1966 12.9976 0.907227 11.4997 0.907227ZM11.4997 18.6245C10.8438 18.6196 10.1923 18.5196 9.56628 18.3277C9.92453 17.7991 10.2074 17.2249 10.4069 16.6211L10.8188 15.0711C10.9897 15.3115 11.2192 15.506 11.4865 15.637C11.7537 15.7681 12.0501 15.8314 12.3486 15.8214C14.3493 15.8214 15.7951 14.0076 15.7951 11.7569C15.7879 11.2423 15.6749 10.7344 15.4629 10.2637C15.2508 9.79296 14.9442 9.36902 14.5612 9.01725C14.1782 8.66548 13.7268 8.39312 13.2339 8.21647C12.7411 8.03982 12.217 7.96252 11.693 7.98919C8.82656 7.98919 7.29668 9.8854 7.29668 11.9383C7.28287 12.4384 7.40001 12.9337 7.63695 13.3768C7.87388 13.8199 8.22268 14.1961 8.65004 14.4693C8.77613 14.527 8.84337 14.4693 8.877 14.3786L9.05352 13.6449C9.06899 13.6156 9.07708 13.583 9.07708 13.55C9.07708 13.5171 9.06899 13.4845 9.05352 13.4552C8.73168 13.0217 8.55807 12.4993 8.55757 11.963C8.55606 11.5814 8.63354 11.2035 8.78533 10.8521C8.93712 10.5007 9.16005 10.1832 9.44062 9.91882C9.72119 9.65443 10.0536 9.44865 10.4176 9.31395C10.7816 9.17924 11.1698 9.11842 11.5585 9.13516C11.9233 9.11312 12.2888 9.16611 12.6315 9.29073C12.9741 9.41535 13.2865 9.60884 13.5485 9.8588C13.8105 10.1088 14.0163 10.4097 14.1527 10.7422C14.2892 11.0748 14.3533 11.4316 14.3409 11.7899C14.3409 13.5542 13.433 14.7743 12.2478 14.7743C12.0965 14.7832 11.9451 14.7568 11.8063 14.6971C11.6674 14.6375 11.5449 14.5464 11.4489 14.4313C11.3529 14.3162 11.2861 14.1805 11.254 14.0351C11.2219 13.8898 11.2254 13.7391 11.2643 13.5954C11.5106 12.8863 11.6962 12.1583 11.8191 11.4189C11.8321 11.3032 11.8201 11.1862 11.7837 11.0755C11.7474 10.9647 11.6875 10.8628 11.6081 10.7763C11.5287 10.6899 11.4316 10.6209 11.323 10.5739C11.2145 10.527 11.0971 10.503 10.9785 10.5037C10.3144 10.5037 9.77643 11.1798 9.77643 12.0867C9.77278 12.4213 9.84154 12.7529 9.97817 13.0595C9.97817 13.0595 9.3141 15.7967 9.19642 16.2996C9.10013 16.9198 9.10013 17.5508 9.19642 18.171C7.65783 17.5764 6.4008 16.4402 5.67127 14.9846C4.94174 13.529 4.79222 11.8588 5.25195 10.3008C5.71168 8.74278 6.74757 7.40906 8.15697 6.56058C9.56637 5.7121 11.2478 5.40991 12.8724 5.71314C14.497 6.01638 15.9477 6.90321 16.9408 8.20012C17.9339 9.49704 18.3979 11.1107 18.242 12.7254C18.0861 14.3402 17.3215 15.8397 16.0978 16.9308C14.8742 18.0218 13.2795 18.6257 11.6257 18.6245H11.4997Z" fill="#808080"/>
</svg>
