<svg width="27" height="27" viewBox="0 0 27 27" fill="none" xmlns="http://www.w3.org/2000/svg">
<path d="M13.4945 26.9969C6.5209 27.1249 0.0243601 21.3963 -0.000422963 13.5141C-0.0235163 6.0582 6.07987 -0.0385721 13.521 -0.000802011C21.3817 0.039223 27.0103 6.52948 26.9996 13.526C26.9883 20.9137 20.8556 27.1176 13.4945 26.9969ZM11.4837 16.2308C12.7859 16.2308 14.0431 16.2353 15.2997 16.2274C15.5983 16.2257 15.9024 16.2093 16.1947 16.153C18.6116 15.6851 20.2682 13.4628 20.0355 11.0168C19.8052 8.59613 17.7516 6.74145 15.2935 6.73863C13.2191 6.73637 11.1446 6.73806 9.07017 6.73806C8.9716 6.73806 8.87303 6.73806 8.77841 6.73806C8.77841 11.2784 8.77841 15.773 8.77841 20.2716C9.68524 20.2716 10.5718 20.2716 11.4831 20.2716C11.4837 18.9243 11.4837 17.5944 11.4837 16.2308Z" fill="#808080" />
<path d="M11.4843 16.2317C11.4843 17.5954 11.4843 18.9252 11.4843 20.2726C10.5729 20.2726 9.68637 20.2726 8.77954 20.2726C8.77954 15.774 8.77954 11.2788 8.77954 6.73901C8.87417 6.73901 8.97274 6.73901 9.07131 6.73901C11.1458 6.73901 13.2202 6.73732 15.2947 6.73958C17.7521 6.74239 19.8063 8.59708 20.0367 11.0177C20.2693 13.4638 18.6128 15.686 16.1959 16.1539C15.9035 16.2103 15.5999 16.2266 15.3009 16.2283C14.0437 16.2362 12.7865 16.2317 11.4843 16.2317ZM11.5 13.4852C11.5485 13.4925 11.584 13.5021 11.6189 13.5021C12.8654 13.5027 14.1124 13.519 15.3583 13.4908C15.6642 13.4841 15.9903 13.3804 16.2657 13.24C17.0779 12.8245 17.4705 11.8944 17.257 10.9986C17.0475 10.1208 16.2421 9.48045 15.302 9.4703C14.2712 9.45903 13.2399 9.46748 12.2092 9.46748C11.9771 9.46748 11.7456 9.46748 11.4995 9.46748C11.5 10.8221 11.5 12.1486 11.5 13.4852Z" fill="white" />
<path d="M11.4998 13.485C11.4998 12.1483 11.4998 10.8219 11.4998 9.46667C11.7454 9.46667 11.9775 9.46667 12.2095 9.46667C13.2403 9.46667 14.2716 9.45821 15.3023 9.46949C16.2418 9.47963 17.0478 10.12 17.2574 10.9978C17.4708 11.8935 17.0783 12.8237 16.266 13.2392C15.9906 13.3801 15.6645 13.4833 15.3587 13.49C14.1127 13.5182 12.8657 13.5019 11.6192 13.5013C11.5837 13.5019 11.5483 13.4923 11.4998 13.485Z" fill="#808080" />
</svg>