<svg width="24" height="24" viewBox="0 0 24 24" fill="none" xmlns="http://www.w3.org/2000/svg">
<path d="M12.1472 0.907303C9.88931 0.899143 7.67979 1.54835 5.79842 2.7727C3.91705 3.99704 2.44846 5.74145 1.57866 7.785C0.708847 9.82855 0.476948 12.0793 0.912327 14.2522C1.34771 16.4251 2.43078 18.4224 4.02437 19.9912C5.61797 21.5599 7.65039 22.6296 9.86425 23.0646C12.0781 23.4996 14.3738 23.2805 16.4606 22.4349C18.5474 21.5894 20.3314 20.1555 21.5866 18.3148C22.8419 16.4741 23.512 14.3095 23.512 12.095C23.5098 9.13562 22.3131 6.29748 20.1834 4.20103C18.0538 2.10458 15.1645 0.920377 12.1472 0.907303ZM18.0313 10.7429C17.0058 11.015 15.7197 10.4461 14.6689 9.23417V9.63815C14.6689 11.287 14.6689 13.0101 14.6689 14.7002C14.6722 15.5063 14.432 16.2953 13.9787 16.9676C13.5253 17.64 12.8791 18.1656 12.1215 18.4782C11.364 18.7907 10.529 18.8763 9.72192 18.724C8.91485 18.5717 8.17184 18.1884 7.58661 17.6225C7.00137 17.0565 6.60014 16.3333 6.4335 15.5439C6.26687 14.7546 6.3423 13.9345 6.6503 13.1872C6.95829 12.4398 7.48503 11.7987 8.1641 11.3446C8.84317 10.8905 9.64413 10.6439 10.466 10.6357H10.7686V12.5979C10.5921 12.5979 10.4155 12.5979 10.2558 12.5979C9.85545 12.6608 9.48175 12.8346 9.17878 13.0989C8.8758 13.3632 8.65617 13.7069 8.54577 14.0896C8.43537 14.4722 8.43881 14.8779 8.55567 15.2587C8.67254 15.6395 8.89796 15.9796 9.20537 16.2389C9.51278 16.4982 9.88937 16.6659 10.2908 16.7223C10.6921 16.7786 11.1016 16.7213 11.4708 16.557C11.8401 16.3927 12.1537 16.1283 12.3748 15.7949C12.5959 15.4615 12.7153 15.0732 12.7188 14.6755C12.7188 12.7463 12.7188 10.8171 12.7188 8.90439V5.39227H14.6689C14.711 5.54891 14.7362 5.7138 14.7866 5.87869C14.9591 6.55952 15.3341 7.17467 15.864 7.64591C16.3939 8.11715 17.0546 8.4232 17.7623 8.52515H18.0902L18.0313 10.7429Z" fill="#808080"/>
</svg>
