<svg width="38" height="44" viewBox="0 0 38 44" fill="none" xmlns="http://www.w3.org/2000/svg">
<path d="M36.9995 28.7926C36.7185 30.7323 36.0498 32.5973 35.0325 34.279C33.4804 36.8804 31.1912 38.9748 28.448 40.3033C26.6196 41.252 24.6653 41.9415 22.6425 42.3515C22.5946 42.3515 25.8978 39.4384 26.0457 37.4374C26.14 36.4514 25.9403 35.4597 25.4713 34.5845C25.0036 33.766 24.2953 33.1074 23.4403 32.6963C22.5853 32.2851 21.624 32.1407 20.6841 32.2824C20.0873 32.3697 19.497 32.4962 18.9172 32.661C16.3452 33.2807 14.0822 32.1791 13.2292 29.9028C12.7201 28.5559 13.2292 25.1694 13.2989 24.8467C11.0297 26.5675 9.46067 29.0366 8.8773 31.8047C8.53409 33.3264 8.56522 34.9072 8.9681 36.4145C9.37097 37.9218 10.1338 39.3115 11.1925 40.4668C11.9672 41.3274 14.2041 42.7474 14.2389 42.7905C14.2737 42.8335 9.40824 41.7749 7.7458 40.8627C4.89054 39.401 2.69967 36.9261 1.61249 33.9342C0.525313 30.9424 0.622203 27.6547 1.88373 24.7305C2.64684 22.9454 3.77258 21.3344 5.1912 19.9971C6.76711 18.5091 8.4643 17.1519 10.2656 15.9393C11.7671 14.9347 13.1992 13.8321 14.5522 12.6389C15.8312 11.5274 16.7539 10.0707 17.2069 8.44771C17.5047 7.15648 17.5225 5.81755 17.2591 4.51903C17.0354 3.35041 16.6928 2.20713 16.2364 1.10668C16.2103 1.03784 16.1407 0.951787 16.1973 0.904453C16.2538 0.85712 16.3626 0.925975 16.4323 0.964702C18.0403 1.81245 19.5345 2.85618 20.88 4.0715C22.3701 5.35716 23.5027 6.9985 24.17 8.8393C25.2058 11.9848 24.6052 14.8636 22.3074 17.4196C22.055 17.695 21.7634 17.936 21.511 18.2071C20.9758 18.7406 20.6411 19.439 20.5623 20.1865C20.5057 20.7886 20.6883 21.389 21.0714 21.8604C21.3684 22.2135 21.7397 22.4984 22.1594 22.6952C22.7406 22.9796 23.3884 23.1044 24.0351 23.0566C24.7989 23.0102 25.5303 22.7357 26.1327 22.2692C26.6618 21.8956 27.0779 21.3865 27.3363 20.7967C27.5947 20.2068 27.6856 19.5585 27.5994 18.9214C27.4429 17.6951 27.5346 16.4503 27.8692 15.2595C28.4175 13.4264 29.7231 12.2473 31.7468 11.774C32.1761 11.6693 32.6124 11.5946 33.0523 11.5502C33.1437 11.5502 33.2525 11.5072 33.3135 11.5502C33.3744 11.5933 33.2873 11.7051 33.2482 11.774C32.8382 12.4687 32.5443 13.2243 32.3778 14.0116C32.1791 15.1396 32.3805 16.3009 32.9479 17.2991C33.5181 18.2729 34.1459 19.2126 34.8279 20.1133C35.7699 21.3878 36.4621 22.8254 36.869 24.3518C37.1971 25.8105 37.2414 27.3176 36.9995 28.7926Z" fill="#0448A3"/>
<path d="M15.8491 43.651H14.2345C13.9647 43.651 9.01216 42.5494 7.31925 41.6157C3.58094 39.5502 1.07421 36.2713 0.264753 32.3813C-0.270482 29.7061 0.00973243 26.9339 1.06986 24.4163C1.86929 22.5175 3.05424 20.801 4.55142 19.3731C6.16162 17.8497 7.89673 16.4608 9.73893 15.2207L10.135 14.9367C11.4689 14.044 12.7384 13.0605 13.9342 11.9934C15.0927 10.9972 15.9295 9.68644 16.3408 8.22391C16.6084 7.04799 16.6217 5.82944 16.38 4.64807C16.1674 3.53801 15.8408 2.4523 15.4052 1.40785C15.2954 1.21916 15.2558 0.998498 15.2932 0.784004C15.3305 0.56951 15.4425 0.374668 15.6097 0.233121C15.783 0.0871912 16.002 0.00491797 16.2296 0.000213534C16.4571 -0.0044909 16.6794 0.0686632 16.8587 0.207304C18.521 1.0855 20.065 2.16687 21.4544 3.42599C23.0612 4.81083 24.2797 6.58188 24.9925 8.56815C26.1414 12.0536 25.4538 15.2207 22.9514 17.9876C22.8078 18.1468 22.6468 18.2974 22.4901 18.448C22.3334 18.5986 22.2551 18.6674 22.1507 18.7836C21.7383 19.1753 21.478 19.6976 21.4152 20.2596C21.3723 20.6476 21.4847 21.0369 21.7285 21.3439C21.9528 21.5978 22.2266 21.8041 22.5336 21.9507C22.9769 22.1642 23.4694 22.2577 23.9611 22.2218C24.5498 22.1833 25.1135 21.9721 25.58 21.615C25.9917 21.3301 26.3158 20.9382 26.5162 20.4825C26.7167 20.0269 26.7858 19.5253 26.7159 19.0332C26.5453 17.694 26.6489 16.3345 27.0205 15.0357C27.6559 12.8841 29.1703 11.5373 31.5204 10.9606C31.9847 10.8494 32.4556 10.7675 32.9304 10.7154C33.1141 10.673 33.3059 10.6803 33.4858 10.7363C33.6657 10.7923 33.8271 10.895 33.9531 11.0338C34.0974 11.2071 34.1763 11.4246 34.1763 11.6491C34.1763 11.8736 34.0974 12.0912 33.9531 12.2645C33.5984 12.8679 33.3469 13.525 33.209 14.2095C33.0426 15.1448 33.212 16.1083 33.6877 16.9333C34.0951 17.6465 34.5456 18.3348 35.0368 18.9945C35.1978 19.2182 35.3588 19.4248 35.5155 19.67C36.5245 21.0289 37.2629 22.5652 37.6914 24.1969C38.043 25.7511 38.0947 27.357 37.8438 28.9302C37.5534 30.9783 36.8568 32.9495 35.794 34.7308C34.149 37.474 31.7287 39.6817 28.8309 41.0821C26.923 42.0625 24.8874 42.7779 22.7817 43.2078L22.155 43.3154L21.8591 42.756C21.7685 42.5612 21.7485 42.3415 21.8024 42.1339C21.8563 41.9262 21.9808 41.7433 22.155 41.6157C24.7662 39.0812 25.1361 37.8118 25.1666 37.3815C25.2495 36.5612 25.0861 35.735 24.6966 35.0062C24.3098 34.3414 23.7288 33.8077 23.0298 33.4752C22.3308 33.1427 21.5465 33.0269 20.7798 33.1429C20.3593 33.2021 19.9435 33.2898 19.5352 33.4054L19.1261 33.5044C16.1232 34.2316 13.425 32.9063 12.411 30.2082C12.1151 29.4294 12.0977 28.1858 12.1673 27.0713C10.9514 28.4773 10.108 30.16 9.71282 31.9682C9.39575 33.3638 9.4253 34.8146 9.79894 36.1964C10.1726 37.5783 10.8792 38.8501 11.8583 39.903C12.6672 40.6425 13.541 41.3092 14.4695 41.8954C14.8089 42.1191 14.8786 42.1665 14.9787 42.3257L15.8491 43.651ZM17.7247 2.716C17.8834 3.25379 18.0127 3.79963 18.1121 4.35115C18.4004 5.77375 18.3781 7.24081 18.0468 8.65421C17.5591 10.4394 16.5493 12.0426 15.144 13.2628C13.8899 14.3812 12.561 15.4149 11.1664 16.3567L10.766 16.6364C9.00471 17.8233 7.34535 19.1517 5.80477 20.6081C4.46455 21.8642 3.40339 23.3824 2.68878 25.0661C1.74821 27.272 1.49662 29.7058 1.96636 32.0543C2.67573 35.4451 4.87781 38.3109 8.16788 40.1268C8.90878 40.4856 9.68257 40.7738 10.4788 40.9874C9.35313 39.7357 8.54344 38.238 8.11604 36.6172C7.68865 34.9964 7.65571 33.2985 8.01991 31.6627C8.64991 28.68 10.3503 26.0235 12.807 24.1839L14.7654 22.7596L14.1649 25.0876C14.0517 25.5652 13.6731 28.5946 14.0648 29.6316C14.7654 31.4992 16.5976 32.3727 18.7344 31.8563L19.1174 31.7574C19.6082 31.6206 20.1086 31.5199 20.6144 31.4561C21.7178 31.3018 22.8425 31.4795 23.8423 31.966C24.8421 32.4526 25.6705 33.2256 26.2197 34.1843C26.7744 35.2004 27.0108 36.3568 26.8986 37.5062C26.8334 38.4056 26.3068 39.4813 25.3232 40.7249C26.2503 40.3796 27.1582 39.986 28.0432 39.5459C30.6322 38.2873 32.7946 36.3107 34.2665 33.8573C35.2245 32.2742 35.8561 30.5192 36.1248 28.6936C36.3453 27.3312 36.304 25.9399 36.0029 24.5927C35.6189 23.1696 34.9695 21.8299 34.088 20.6425C33.9357 20.4231 33.7791 20.2122 33.6224 19.9885C33.0855 19.2739 32.597 18.525 32.1601 17.7466C31.4986 16.5793 31.265 15.2219 31.4986 13.904C31.5767 13.4743 31.6977 13.0534 31.8598 12.6474C30.1669 13.0777 29.1225 14.0201 28.6742 15.5262C28.3704 16.608 28.289 17.739 28.4349 18.8525C28.5376 19.6342 28.4253 20.4289 28.1097 21.1528C27.7942 21.8767 27.2871 22.5032 26.6419 22.9662C25.8994 23.5355 25.0028 23.8739 24.0655 23.9387C23.2607 23.996 22.4551 23.8384 21.7329 23.4825C21.2033 23.229 20.7344 22.8666 20.3577 22.4197C19.8407 21.7799 19.5929 20.9677 19.6657 20.152C19.7485 19.1988 20.1675 18.3048 20.8494 17.6261C20.9843 17.4798 21.128 17.3421 21.2846 17.1958C21.4413 17.0495 21.537 16.9591 21.6502 16.8343C23.7391 14.5236 24.2918 11.9934 23.3387 9.08883C22.7191 7.38766 21.6705 5.871 20.2924 4.68247C19.4951 3.95545 18.636 3.29756 17.7247 2.716Z" fill="#2F80ED"/>
<path d="M17.6943 43.9996C15.0773 44.0158 12.4777 43.5789 10.0131 42.7087L8.73364 42.231L9.35162 40.6217L10.6224 41.095C12.8904 41.9014 15.2841 42.3078 17.6943 42.2956C21.0391 42.3484 24.3397 41.5355 27.2686 39.9375L28.139 41.4263C25.2536 43.0787 21.5458 43.9996 17.6943 43.9996Z" fill="#2F80ED"/>
<path d="M10.9054 38.2893C11.4879 39.5477 12.4231 40.6147 13.6002 41.3636C14.7772 42.1125 16.1468 42.5121 17.5465 42.5149C20.8365 42.5536 22.512 42.1233 24.6053 38.4528L10.9054 38.2893Z" fill="white"/>
</svg>
