<svg width="41" height="49" viewBox="0 0 41 49" fill="none" xmlns="http://www.w3.org/2000/svg">
<path fill-rule="evenodd" clip-rule="evenodd" d="M26.6656 40.3766C28.1925 37.9759 26.2778 35.0892 23.7936 34.8682C23.3272 34.829 22.8608 34.9321 22.4141 35.0793C17.9956 36.5325 13.1892 33.9453 13.7931 28.9573C8.57435 34.9664 11.4464 43.5383 18.246 43.9016C21.0885 44.0489 24.6282 43.4107 26.6656 40.3766Z" fill="#0448A3" stroke="#0448A3" stroke-width="1.47283" stroke-miterlimit="10" stroke-linecap="round"/>
<path fill-rule="evenodd" clip-rule="evenodd" d="M8.42228 45.6394C25.2813 54.7268 50.4373 37.6861 35.7777 19.7667C34.0348 17.361 34.4472 13.9539 34.4472 13.9539C34.4472 13.9539 30.2055 15.5937 29.5378 18.3724C28.5608 20.8959 30.0533 26.3404 26.1012 26.7185C23.1752 26.8265 21.1083 24.0281 23.1555 21.3181C28.7032 13.9735 18.737 4.13501 18.737 4.13501C18.737 4.13501 21.2654 9.92324 15.2219 14.6068C12.1682 17.3709 8.48119 19.3346 5.5748 22.2754C-1.60771 28.7313 -0.453996 41.1031 8.42228 45.6394Z" stroke="#0448A3" stroke-width="1.47283" stroke-miterlimit="10"/>
</svg>
