<svg width="28" height="28" viewBox="0 0 28 28" fill="none" xmlns="http://www.w3.org/2000/svg">
<path d="M14.2595 0.473633C11.5756 0.473633 8.95195 1.2695 6.72037 2.76059C4.4888 4.25168 2.7495 6.37103 1.72242 8.85062C0.695337 11.3302 0.4266 14.0587 0.950201 16.691C1.4738 19.3233 2.76622 21.7413 4.66402 23.6391C6.56182 25.5369 8.97976 26.8293 11.6121 27.3529C14.2444 27.8765 16.9729 27.6078 19.4525 26.5807C21.9321 25.5536 24.0514 23.8143 25.5425 21.5827C27.0336 19.3511 27.8295 16.7275 27.8295 14.0436C27.8268 10.4455 26.3963 6.99541 23.852 4.45112C21.3077 1.90682 17.8576 0.476281 14.2595 0.473633ZM21.1195 11.3836C21.1881 13.0716 20.7926 14.746 19.9762 16.2249C19.1597 17.7038 17.9534 18.9306 16.4884 19.7718C15.0234 20.6131 13.3559 21.0366 11.667 20.9964C9.9782 20.9561 8.33271 20.4537 6.90946 19.5436C8.62658 19.7463 10.3545 19.2649 11.7195 18.2036C11.047 18.1838 10.3973 17.9557 9.85991 17.5509C9.32257 17.1461 8.9241 16.5845 8.71946 15.9436C9.20358 16.0383 9.70293 16.0212 10.1794 15.8936C9.43862 15.7405 8.7741 15.3346 8.29975 14.7453C7.8254 14.156 7.57077 13.4201 7.57946 12.6636C8.03111 12.9123 8.53433 13.0526 9.04946 13.0736C8.36343 12.612 7.87847 11.9068 7.6928 11.101C7.50713 10.2952 7.63463 9.44897 8.04946 8.73363C8.86676 9.73617 9.88543 10.5559 11.0396 11.1399C12.1937 11.7239 13.4576 12.059 14.7495 12.1236C14.5763 11.425 14.6399 10.6887 14.9303 10.0302C15.2208 9.37165 15.7216 8.82815 16.3542 8.48494C16.9869 8.14174 17.7155 8.01825 18.4259 8.13384C19.1363 8.24943 19.7883 8.59756 20.2795 9.12363C21.0084 8.97647 21.7078 8.70952 22.3495 8.33363C22.1047 9.08607 21.5971 9.72511 20.9195 10.1336C21.5614 10.0572 22.1883 9.88532 22.7795 9.62363C22.3417 10.3095 21.7785 10.9066 21.1195 11.3836Z" fill="#808080"/>
</svg>
