<svg width="39" height="39" viewBox="0 0 39 39" fill="none" xmlns="http://www.w3.org/2000/svg">
<path d="M26.6144 19.8492L16.172 25.8762V13.8223L26.6144 19.8492Z" fill="#0448A3"/>
<path d="M15.6324 26.8292V12.884L27.6974 19.849L15.6324 26.8292ZM16.7154 14.7753V24.9304L25.5314 19.8414L16.7154 14.7753Z" fill="#2F80ED"/>
<path d="M19.7744 38.849C16.0166 38.849 12.3431 37.7354 9.21858 35.6489C6.09405 33.5624 3.65877 30.5968 2.22071 27.1271C0.782643 23.6573 0.406384 19.8394 1.1395 16.156C1.87262 12.4725 3.68221 9.08908 6.3394 6.43348C8.9966 3.77788 12.3821 1.96938 16.0677 1.2367C19.7533 0.504017 23.5736 0.88005 27.0454 2.31725C30.5172 3.75445 33.4846 6.18827 35.5723 9.31093C37.6601 12.4336 38.7744 16.1049 38.7744 19.8604C38.7654 24.8938 36.7607 29.7183 33.1995 33.2774C29.6382 36.8365 24.8108 38.84 19.7744 38.849ZM19.7744 8.06473C17.4446 8.06473 15.167 8.7552 13.2298 10.0488C11.2926 11.3424 9.78271 13.1811 8.89111 15.3323C7.99951 17.4836 7.76625 19.8507 8.22078 22.1344C8.67531 24.4182 9.79724 26.5159 11.4447 28.1624C13.0922 29.8088 15.1911 30.9301 17.4762 31.3844C19.7613 31.8386 22.1299 31.6055 24.2824 30.7144C26.4349 29.8234 28.2747 28.3144 29.5691 26.3783C30.8635 24.4423 31.5544 22.1661 31.5544 19.8377C31.5474 16.7174 30.304 13.727 28.0964 11.5207C25.8887 9.31436 22.8965 8.07175 19.7744 8.06473Z" fill="#0448A3"/>
<path d="M19.7744 38.8263C16.0166 38.8263 12.3431 37.7127 9.21858 35.6262C6.09405 33.5397 3.65877 30.5741 2.22071 27.1044C0.782643 23.6346 0.406384 19.8167 1.1395 16.1333C1.87262 12.4498 3.68221 9.06638 6.3394 6.41077C8.9966 3.75517 12.3821 1.94667 16.0677 1.21399C19.7533 0.481312 23.5736 0.857345 27.0454 2.29455C30.5172 3.73175 33.4846 6.16557 35.5723 9.28822C37.6601 12.4109 38.7744 16.0822 38.7744 19.8377C38.7744 24.8738 36.7726 29.7036 33.2094 33.2647C29.6462 36.8257 24.8135 38.8263 19.7744 38.8263ZM19.7744 2.39102C16.3172 2.39102 12.9376 3.41558 10.063 5.33516C7.18848 7.25473 4.94804 9.98309 3.62502 13.1752C2.302 16.3674 1.95583 19.8799 2.6303 23.2686C3.30477 26.6574 4.96959 29.7702 7.41421 32.2133C9.85883 34.6565 12.9735 36.3203 16.3642 36.9944C19.755 37.6684 23.2697 37.3225 26.4637 36.0002C29.6578 34.678 32.3878 32.4389 34.3085 29.5661C36.2292 26.6932 37.2544 23.3157 37.2544 19.8605C37.2544 17.5664 36.8023 15.2947 35.9238 13.1752C35.0454 11.0557 33.7578 9.12991 32.1346 7.50772C30.5115 5.88552 28.5845 4.59873 26.4637 3.7208C24.3429 2.84288 22.0699 2.39102 19.7744 2.39102Z" fill="#2F80ED"/>
</svg>
