<svg width="50" height="49" viewBox="0 0 50 49" fill="none" xmlns="http://www.w3.org/2000/svg">
<path d="M25.2998 47.3834C20.6407 47.3834 16.0848 46.0137 12.2063 43.451C8.33275 40.8882 5.3085 37.2454 3.52637 32.984C1.74425 28.7226 1.27786 24.0341 2.1861 19.5125C3.09435 14.9909 5.33798 10.8326 8.63712 7.57275C11.9314 4.31288 16.1338 2.0889 20.7045 1.19047C25.2752 0.292045 30.0128 0.753523 34.3184 2.51601C38.624 4.2785 42.3061 7.26836 44.8933 11.1026C47.4806 14.9369 48.8651 19.4487 48.8651 24.0587C48.8602 30.2396 46.376 36.1703 41.9575 40.5397C37.539 44.9189 31.5495 47.3785 25.2998 47.3834Z" stroke="#0448A3" stroke-width="1.47283" stroke-miterlimit="10" stroke-linecap="round"/>
<path d="M33.6802 24.0588L21.4066 31.1825V16.9451L33.6802 24.0588Z" fill="#0448A3" stroke="#0448A3" stroke-width="1.47283" stroke-miterlimit="10" stroke-linecap="round"/>
</svg>
