<svg width="28" height="28" viewBox="0 0 28 28" fill="none" xmlns="http://www.w3.org/2000/svg">
<path d="M13.6403 0.473633C10.9564 0.473633 8.33281 1.2695 6.10123 2.76059C3.86966 4.25168 2.13036 6.37103 1.10327 8.85062C0.0761937 11.3302 -0.19254 14.0587 0.331062 16.691C0.854663 19.3233 2.14708 21.7413 4.04488 23.6391C5.94268 25.5369 8.36062 26.8293 10.9929 27.3529C13.6253 27.8765 16.3537 27.6078 18.8333 26.5807C21.3129 25.5536 23.4323 23.8143 24.9234 21.5827C26.4145 19.3511 27.2103 16.7275 27.2103 14.0436C27.2077 10.4455 25.7771 6.99541 23.2328 4.45112C20.6885 1.90682 17.2385 0.476281 13.6403 0.473633ZM18.6403 19.5736C15.3091 19.7423 11.9715 19.7423 8.64032 19.5736C6.07032 19.4036 5.77032 18.1436 5.75032 14.0436C5.73032 9.94363 6.07032 8.69363 8.64032 8.51363C11.0103 8.35363 16.3103 8.35363 18.6403 8.51363C21.2203 8.69363 21.5203 9.95363 21.5403 14.0436C21.5603 18.1336 21.2403 19.4036 18.6603 19.5436L18.6403 19.5736ZM11.3603 11.3936L16.9203 14.0436L11.3603 16.6936V11.3936Z" fill="#808080"/>
</svg>
